<svg width="422" height="1141" xmlns="http://www.w3.org/2000/svg">
 <g>
  <title>background</title>
  <rect x="-1" y="-1" width="422" height="1141" id="canvas_background" fill="#CCCCCC"/>
 </g>

 <g>
  <title>Layer 1</title>
  <g id="svg_1">
   <polygon fill="#FFFFFF" points="84.04998779296875,682.4561040401459 39.0529899597168,655.4570806026459 19.553998947143555,635.9581182003021 3.0550060272216797,604.4601323604584 18.05402946472168,559.4620854854584 16.553998947143555,428.9680669307709 24.05299186706543,395.970050573349 38.55295944213867,365.9710576534271 39.0529899597168,292.4750554561615 46.55198287963867,238.47784781455994 67.55093383789062,221.97873282432556 87.04998779296875,211.4786412715912 99.04998779296875,185.9794499874115 99.04998779296875,151.48117423057556 84.54995727539062,107.98317313194275 91.54995727539062,59.98618674278259 109.54901123046875,29.987266302108765 136.5479736328125,14.988284826278687 169.54598999023438,2.9893081188201904 193.54498291015625,11.98829436302185 223.54400634765625,49.48621344566345 238.54400634765625,79.48515677452087 238.54400634765625,134.9821813106537 243.04296875,172.48033499717712 247.54296875,202.47858023643494 271.54205322265625,215.9786717891693 289.54107666015625,244.47787833213806 294.04107666015625,280.4760625362396 295.54107666015625,323.9740483760834 301.5400390625,371.9710576534271 310.5400390625,431.9680669307709 310.5400390625,463.4670293331146 294.04107666015625,518.9640996456146 288.04107666015625,551.9620854854584 295.54107666015625,590.9601323604584 292.54107666015625,605.9590947628021 298.5400390625,634.4581182003021 268.54205322265625,665.9561040401459 291.04107666015625,785.9501225948334 343.5380859375,953.9421269893646 364.53704833984375,1034.9380986690521 399.0350341796875,1072.4371221065521 394.53607177734375,1106.9351689815521 361.53704833984375,1096.4351689815521 331.5390625,1067.9371221065521 328.5390625,1034.9380986690521 267.04205322265625,793.4501225948334 213.04498291015625,680.9561040401459 261.04205322265625,449.9670293331146 262.54205322265625,392.970050573349 247.54296875,350.9720342159271 83.04998779296875,359.4720342159271 74.41995239257812,393.2570378780365 70.88201904296875,420.8550298213959 133.5479736328125,787.4501225948334 148.5469970703125,973.4411504268646 153.0469970703125,994.4400517940521 165.0460205078125,1022.9380986690521 165.0460205078125,1037.9380986690521 135.0479736328125,1061.9371221065521 115.54901123046875,1085.9361455440521 85.54995727539062,1081.4361455440521 81.05096435546875,1061.9371221065521 111.54901123046875,1023.4390752315521 113.5479736328125,1007.9391973018646 111.5479736328125,995.9390752315521 115.54901123046875,790.4501225948334 " id="svg_2"/>
   <path fill="#8EC8F0" stroke="#000000" stroke-width="2" stroke-linecap="round" stroke-linejoin="bevel" d="m126.774,250.83238c14.667,10 40,10.667 68.667,0l-45.334,95.334l-23.333,-95.334z" id="svg_3"/>
   <path fill="#8EC8F0" stroke="#000000" stroke-width="2" stroke-linecap="round" stroke-linejoin="bevel" d="m18.319,467.65538l-0.502,-13.042l17.183,-9.885l17.107,14.104l-3.482,11.936c-9.336,-4.025 -20.212,-3.592 -30.306,-3.113z" id="svg_4"/>
   <path fill="#8EC8F0" stroke="#000000" stroke-width="2" stroke-linecap="round" stroke-linejoin="bevel" d="m259.898,484.09938l-0.502,-13.042l24.763,-10.766l24.591,9.181l-4.591,20c-10.492,-6.886 -34.167,-5.853 -44.261,-5.373z" id="svg_5"/>
   <path d="m63.772,1099.09638c-0.498,-2.596 -1.083,-6.113 -1.164,-7.763c-0.081,-1.65 2.378,-15.701 7.249,-21.334s14.069,-14.648 14.069,-14.648l4.72,-4.598l4.721,-4.598l3.69,-5.77c2.029,-3.174 3.69,-5.971 3.69,-6.217s2.204,-3.95 4.897,-8.23l4.898,-7.783l0.648,-3.101l0.648,-3.102l-1.083,-8.713c-0.595,-4.792 -2.211,-13.522 -3.591,-19.399c-3.188,-13.575 -16.132,-66.511 -17.436,-71.302c-0.541,-1.989 -0.983,-4.941 -0.983,-6.562s-0.949,-6.518 -2.108,-10.884c-4.579,-17.242 -7.286,-32.968 -9.974,-57.938l-0.968,-9l0.649,-8.5c0.357,-4.675 1.419,-12.293 2.358,-16.929l1.708,-8.429l-0.814,-4.071c-0.448,-2.239 -1.968,-10.485 -3.377,-18.325l-2.563,-14.254l-3.896,-9.83c-2.144,-5.407 -9.373,-26.218 -16.067,-46.246l-12.171,-36.416l-3.586,-4.409c-1.973,-2.425 -7.396,-8.489 -12.053,-13.478l-8.467,-9.068l-4.38,-9.022c-2.409,-4.963 -5.89,-11.872 -7.735,-15.354l-3.354,-6.331l-0.474,-3.169l-0.473,-3.169l0.928,-2.5c0.51,-1.375 2.003,-4.075 3.318,-6l2.391,-3.5l3.073,-9.207l3.072,-9.207l1.52,-10.157l1.519,-10.157l-1.064,-30.636c-0.585,-16.85 -1.044,-40.986 -1.02,-53.636l0.045,-23l0.894,-13.5l0.894,-13.5l1.662,-8l1.663,-8l2.348,-5.5c1.292,-3.025 4.214,-10.384 6.494,-16.353l4.146,-10.853l1.526,-7.147l1.526,-7.147l0.74,-44l0.739,-44l2.179,-9.303l2.179,-9.303l3.476,-6.903l3.477,-6.903l4.58,-4.389l4.58,-4.389l7.18,-3.966c3.948,-2.182 9.204,-4.726 11.68,-5.653c2.475,-0.927 5.979,-2.591 7.789,-3.698l3.29,-2.012l1.83,-4.27c1.007,-2.348 2.339,-6.642 2.96,-9.541c0.622,-2.899 1.877,-6.711 2.789,-8.471l1.659,-3.2l-0.064,-14.5l-0.064,-14.5l-1.991,-8c-1.095,-4.4 -3.816,-13.248 -6.048,-19.661l-4.058,-11.661l-0.631,-4.839l-0.631,-4.839l1.614,-9.244c0.888,-5.083 2.279,-15.659 3.093,-23.5l1.478,-14.256l3.093,-6c3.339,-6.478 9.304,-14.679 14.893,-20.478c6.003,-6.229 17.055,-12.957 43.177,-26.283l3.677,-1.876l8.132,-1.42l8.133,-1.419l7.122,1.01l7.122,1.01l4.568,2.728l4.569,2.728l6.657,7l6.657,7l6.591,10c3.624,5.5 7.887,11.8 9.472,14c1.585,2.2 4.805,7.6 7.155,12c2.35,4.4 4.642,8.675 5.094,9.5c0.452,0.825 1.952,4.889 3.333,9.031l2.51,7.531l0.989,9.539l0.989,9.539l0.005,30.075l0.005,30.075l2.598,11.855c1.43,6.521 3.202,14.78 3.939,18.355c0.738,3.575 1.645,7.27 2.015,8.21l0.674,1.709l7.533,4.134l7.533,4.135l4.402,4.058l4.402,4.058l7.079,11.341l7.08,11.341l2.324,7.535l2.325,7.535l1.063,9.222c0.585,5.072 1.476,12.995 1.979,17.606l0.917,8.384l0.12,16.116l0.119,16.116l1.019,12c1.215,14.3 3.23,28.279 5.888,40.821c1.069,5.048 2.396,12.328 2.95,16.179c0.553,3.85 1.533,10.149 2.179,14l1.175,7l0.005,19l0.006,19l-1.108,10.5l-1.109,10.5l-2.128,8.5c-1.17,4.675 -3.914,14.529 -6.097,21.899l-3.968,13.399l-1.937,14.101c-1.065,7.755 -2.588,16.469 -3.384,19.364l-1.446,5.264l1.918,7.322c1.055,4.027 2.756,12.684 3.78,19.236l1.861,11.914l-0.72,8.5l-0.721,8.5l1.019,4.972l1.018,4.972l-0.62,8.06l-0.619,8.06l1.841,11.469l1.841,11.469l0.224,32c0.123,17.6 0.395,36.725 0.604,42.5l0.382,10.5l1.509,10.5c0.83,5.774 2.223,12.975 3.095,16c2.591,8.987 3.493,13.094 4.612,21c0.584,4.125 1.89,12.599 2.901,18.83l1.84,11.331l4.067,6.244l4.068,6.244l5.022,11.219l5.022,11.219l1.849,7.707c1.018,4.238 2.781,10.855 3.921,14.706c2.321,7.843 4.717,21.463 5.627,32c0.803,9.282 2.297,22.415 4.151,36.5c6.889,52.291 7.936,57.655 14.277,73.127l3.842,9.373l6.592,9.807c9.347,13.904 10.763,15.591 24.436,29.097l9.245,12.097l3.708,6l2.709,6l5.017,14.669c-0.394,12.823 -1.816,13.069 -2.915,18.58l-3.282,4.415l-3.363,2.889l-3.363,2.889l-3.5,1.023c-1.926,0.563 -3.056,0.47 -4.155,0.468l-3.345,-0.452l-5.456,-1.54l-5.455,-2.539l-10.535,-4.837l-10.565,-8.855l-3.116,-4.354c-1.715,-2.396 -5.905,-9.624 -9.313,-16.065l-6.195,-11.71l-3.183,-1.962c-1.75,-1.079 -4.532,-2.285 -6.182,-2.68c-4.528,-1.084 -8.193,-3.166 -12.625,-7.169l-4.005,-3.618l-1.436,-2.775l-1.435,-2.776l-0.989,-5.299l1.011,-5.3l1.489,-4.909l1.489,-4.909l0,-5.707l0,-5.708l-1.917,-4.884c-1.055,-2.686 -3.135,-8.708 -4.623,-13.383c-6.047,-18.996 -20.999,-48.933 -45.45,-91c-13.926,-23.959 -16.959,-30.59 -21.244,-46.444l-2.178,-8.056l0.236,-18.174l0.235,-18.175l-4.714,-7.825c-2.594,-4.305 -6.362,-10.526 -8.375,-13.826c-8.189,-13.423 -17.76,-37.819 -22.949,-58.5c-8.527,-33.979 -18.301,-63.748 -27.251,-83c-5.026,-10.813 -12.203,-26.975 -14.432,-32.5c-1.331,-3.3 -3.081,-7.486 -3.889,-9.304l-1.469,-3.303l-0.851,0.525l-0.85,0.524l-0.602,13.778c-0.331,7.578 -1.084,18.729 -1.673,24.778s-1.448,17.75 -1.911,26l-0.84,15l2.366,21c1.301,11.55 2.368,23.253 2.371,26.007l0.007,5.007l-2.707,11.493l-2.706,11.493l0.122,3.5c0.206,5.876 2.267,16.104 4.836,24l2.44,7.5l1.601,10.945l1.601,10.945l-0.484,13.055l-0.485,13.055l-1.667,10.5l-1.668,10.5l-0.365,25l-0.366,25l-1.769,24.448l-1.77,24.448l3.056,11.552c1.68,6.354 4.951,17.401 7.27,24.552l4.215,13l-0.426,4.707l-0.425,4.708l-2.563,3.359l-2.562,3.358l-13.637,6.683l-13.636,6.684l-2.556,2.75c-3.082,3.317 -5.946,8.764 -8.478,16.123c-2.355,6.845 -5.85,12.826 -9.546,16.338l-2.852,2.709l-3.781,2.926l-4.333,2.666l-4.834,1.834l-6,1.666l-6.5,1.667c0,0 -5.65,0.577 -7.825,0.455s-7.175,-1.622 -7.175,-1.622l-5.526,-3.34l-3.133,-4.827l-2.335,-5.903zm236.994,-260.918l-1.191,-1.436l1.964,-5.265l1.965,-5.266l1.603,-1.012l1.604,-1.011l1.603,1.603l1.603,1.603l-2.224,5.17l-2.225,5.171l-1.755,0.938l-1.754,0.939l-1.193,-1.434zm-24.112,-5.739l-4.092,-4.217l-2.494,-4.921l-2.493,-4.921l-0.531,-5.144l-0.53,-5.143l1.617,-1.343l1.617,-1.342l1.5,1.245l1.5,1.245l0.01,3.627l0.01,3.628l2.37,5l2.371,5l4.119,3.953l4.12,3.953l0,1.797l0,1.797l-2.502,0l-2.501,0l-4.091,-4.214zm-127.974,-609.851l-2.066,-2.067l1.261,-1.52l1.261,-1.519l2.631,0.526l2.631,0.526l4.425,-2.936l4.426,-2.936l3.215,-0.004l3.215,-0.004l0.988,1.847l0.988,1.847l-1.153,1.153c-0.635,0.634 -1.851,1.153 -2.703,1.153s-4.025,1.333 -7.05,2.96l-5.5,2.96l-2.25,0.04l-2.25,0.04l-2.069,-2.066zm4.347,-11.953l-2.22,-0.893l-0.624,-2.486l-0.624,-2.487l0.653,-1.057l0.652,-1.057l3.081,0l3.081,0l1.377,-1.75c1.777,-2.26 3.805,-6.83 7.432,-16.75c1.608,-4.4 3.814,-9.463 4.903,-11.25l1.979,-3.25l2.015,0l2.015,0l0,1.875c0,1.032 -1.061,4.294 -2.355,7.25c-1.296,2.956 -3.347,8.38 -4.559,12.054c-1.211,3.674 -3.564,9.195 -5.229,12.268l-3.026,5.589l-2.866,1.481c-1.575,0.815 -3,1.453 -3.165,1.418c-0.165,-0.033 -1.299,-0.464 -2.52,-0.955zm-49.949,829.396c-2.015,3.368 -5.656,7.468 -7.971,10.218l-5.75,5l-6.308,5.618c0,0 -0.314,8.15 9.559,11.966c14.666,5.667 26.166,3.333 26.166,3.333s4.5,-5 5.667,-9.5c1.123,-4.329 8.333,-13.499 12.833,-17.166s10.667,-8.5 10.667,-8.5l-2.07,-2.845l1.45,-8l1.45,-8l0.051,-6.17l0.051,-6.17l-1.563,-5.262l-1.563,-5.262l0,-3.866l0,-3.866l2.595,-2.405l2.596,-2.405l1.395,-16.297l1.395,-16.297l0.845,-27c0.465,-14.851 0.834,-29.7 0.821,-33l-0.024,-6l1.725,-11.5l1.725,-11.5l0.593,-11.5l0.592,-11.5l-1.671,-11.311l-1.671,-11.312l-2.563,-7.188c-1.409,-3.954 -2.983,-7.636 -3.498,-8.182l-0.937,-0.991l-0.942,1.491l-0.943,1.492l-0.016,7.668c-0.008,4.218 -0.288,8.38 -0.622,9.25l-0.607,1.582l-1.925,0l-1.925,0l-0.832,-2.248l-0.831,-2.248l0.194,-8.002l0.195,-8.002l2.619,-6.5c1.439,-3.575 4.034,-11.45 5.764,-17.5l3.146,-11l0.54,-9.795l0.541,-9.795l-2.322,-22.471l-2.322,-22.471l1.71,-20.234c0.94,-11.129 2.198,-29.2 2.794,-40.157l1.084,-19.924l-0.715,-10.483l-0.714,-10.483l-8.144,-8.594c-4.479,-4.727 -9.718,-10.318 -11.643,-12.426c-3.713,-4.064 -16.309,-21.925 -20.467,-29.019l-2.479,-4.231l-11.508,-12.239c-6.33,-6.731 -12.012,-13.178 -12.625,-14.325l-1.116,-2.086l1.492,-1.492l1.491,-1.492l1.518,0.858c0.834,0.473 6.775,6.465 13.202,13.316l11.685,12.457l8.504,12.543c13.117,19.349 13.643,20.033 21.776,28.379l7.637,7.836l1.205,-0.463l1.204,-0.462l1.254,-4.688l1.255,-4.689l4.85,-7.185l4.851,-7.185l4.683,-4.313l4.683,-4.313l2.125,0.313l2.125,0.313l0.378,1.147l0.377,1.148l-6.407,7.217c-3.524,3.97 -7.862,9.617 -9.641,12.551l-3.232,5.334l-0.539,7.863l-0.539,7.863l2.069,4.677c1.138,2.573 3.486,9.68 5.218,15.793l3.147,11.114l4.913,10.888c2.702,5.988 4.913,11.148 4.913,11.467s2.218,5.159 4.928,10.758c5.687,11.745 14.313,33.988 17.132,44.176c1.066,3.853 2.868,10.153 4.005,14.004c2.237,7.578 3.127,10.852 7.828,28.781c7.047,26.882 17.092,50.681 28.247,66.928c1.022,1.49 1.862,3.065 1.864,3.5c0.003,0.436 1.664,2.591 3.691,4.791l3.688,4l3.793,8.5l3.793,8.5l0.016,2.281l0.016,2.281l-1.656,0.636l-1.655,0.635l-1.885,-2.326l-1.884,-2.327l-1.074,1.073l-1.073,1.074l0.468,10.836l0.469,10.837l2.648,9l2.647,9l5.396,10.5c2.968,5.774 7.457,13.875 9.977,18s6.896,12 9.725,17.5s5.938,11.125 6.906,12.5c2.242,3.18 18.669,35.945 23.313,46.5c1.936,4.399 5.334,13.399 7.552,20c6.993,20.808 7.765,22.792 12.498,32.151c0,0 24.184,33.042 35.485,39.746s25.105,-7.254 25.105,-7.254s2.285,-5.771 1.136,-7.304c-2.125,-2.833 -12.66,-17.286 -16.124,-21.658c-2.041,-2.575 -5.323,-7.215 -7.296,-10.312l-4.808,-6.87l-3.853,-8.25c-2.119,-4.538 -4.795,-11.064 -5.947,-14.504l-2.094,-6.253l-2.015,-11.747c-2.753,-16.055 -7.443,-51.371 -9.396,-70.746c-0.887,-8.8 -2.325,-20.5 -3.197,-26l-1.585,-10l-2.327,-7.5c-1.279,-4.125 -2.649,-9.3 -3.044,-11.5c-1.06,-5.921 -4.658,-15.86 -9.346,-25.819l-4.151,-8.819l-1.208,0.401l-1.207,0.401l-0.868,4.722l-0.868,4.723l-2.132,-0.305l-2.132,-0.304l-0.67,-18l-0.669,-18l-1.081,-3.493l-1.08,-3.494l0,-5.074l0,-5.074l-2.015,-7.432c-1.108,-4.088 -2.699,-9.908 -3.536,-12.933c-0.836,-3.025 -2.208,-10 -3.048,-15.5l-1.527,-10l-0.47,-42.5l-0.47,-42.5l-1.037,-7.849c-0.569,-4.316 -1.278,-8.479 -1.574,-9.25l-0.538,-1.401l-1.219,0c-1.801,0 -4.926,3.717 -8.984,10.686l-3.604,6.187l-1.864,0.592c-1.025,0.325 -3.474,2.154 -5.44,4.063l-3.575,3.473l-1.517,0l-1.516,0l-3.5,-3.5c-1.925,-1.925 -3.933,-3.5 -4.462,-3.5s-1.669,-0.707 -2.533,-1.571l-1.571,-1.571l0.003,-4.679l0.004,-4.679l2.962,-7.5l2.962,-7.5l0.029,-6.5l0.028,-6.5l-1.041,-3.75l-1.042,-3.75l-0.917,0c-1.225,0 -2.839,3.139 -4.54,8.828l-1.396,4.672l-2.556,2.738l-2.556,2.738l-2.511,0.63l-2.511,0.631l-1.96,-1.774l-1.959,-1.773l0.035,-13.095l0.035,-13.095l1.43,-6.5l1.43,-6.5l0.035,-6.803l0.035,-6.803l1.623,-7.197l1.623,-7.197l2.014,-3.978c1.106,-2.188 3.028,-5.563 4.271,-7.5l2.258,-3.522l1.074,-5l1.074,-5l0.892,-18.5c0.49,-10.175 0.895,-20.75 0.898,-23.5s0.304,-11.631 0.668,-19.734l0.661,-14.735l-3.442,-10.395c-3.733,-11.274 -8.104,-20.853 -14.942,-32.739c-2.405,-4.183 -4.891,-9.087 -5.522,-10.899l-1.148,-3.296l0.048,-5.601l0.048,-5.601l3.342,-11c1.838,-6.05 4.741,-15.461 6.452,-20.913l3.11,-9.913l0,-4.837l0,-4.837l-0.75,0.009c-0.413,0.005 -3.28,2.175 -6.373,4.822l-5.622,4.813l-5.378,2.371l-5.377,2.371l-7.5,-0.067l-7.5,-0.066l-7.5,-2.448l-7.5,-2.448l-7,-5.119l-7,-5.118l-1.754,-2.969l-1.753,-2.969l0.61,-1.591l0.61,-1.59l1.824,0l1.825,0l2.086,2.929l2.085,2.929l5.965,3.983l5.965,3.982l7.771,2.589c4.274,1.423 8.505,2.588 9.402,2.588c2.021,0 11.078,-2.675 16.134,-4.765l3.771,-1.559l3.979,-4.316l3.979,-4.315l0.009,-1.272c0.005,-0.7 1.116,-3.522 2.469,-6.272l2.46,-5l0.031,-6.032l0.031,-6.032l-1.32,-5.089l-1.32,-5.089l-3.521,-4.879c-1.937,-2.684 -3.828,-5.73 -4.203,-6.77l-0.681,-1.891l1.598,-2.438l1.597,-2.438l-0.76,-4.171c-0.886,-4.855 -0.639,-6.89 0.961,-7.894l1.15,-0.722l3.217,0.393c1.769,0.216 3.7,0.691 4.291,1.057l1.075,0.665l-0.155,7.165l-0.155,7.166l1.072,8.777c0.589,4.828 1.358,9.242 1.709,9.81l0.638,1.032l0.828,19.19l0.827,19.19l1.479,4.5c0.813,2.475 1.971,7.447 2.571,11.049c0.601,3.603 1.755,8.783 2.565,11.514l1.475,4.963l2.585,3.487c3.023,4.077 5.898,10.179 8.611,18.274l1.939,5.787l-0.596,0.963l-0.595,0.963l-1.882,0l-1.883,0l-0.617,-1c-0.34,-0.55 -1.046,-1 -1.568,-1l-0.949,0l0.662,24.285l0.662,24.285l-1.178,6.465l-1.178,6.465l-0.415,10c-0.229,5.5 -0.86,12.25 -1.405,15l-0.991,5l-0.56,22l-0.559,22l-1.556,6.492l-1.556,6.491l-3.411,5.009l-3.41,5.008l-2.045,7.479l-2.044,7.48l0,6.16l0,6.161l-2.587,9.859l-2.587,9.859l0.394,8.724l0.394,8.723l0.741,0.741l0.741,0.741l1.702,-1.062l1.702,-1.063l1.323,-3.902c2.822,-8.322 6.228,-22.372 7.093,-29.267l0.906,-7.218l1.202,-1.448l1.202,-1.448l0.953,0.59l0.954,0.59l-0.637,8.649l-0.637,8.649l2.632,7.5l2.632,7.5l0.569,9l0.57,9l-2.741,6.85l-2.74,6.85l-0.522,3.9l-0.523,3.9l0.882,-0.074l0.882,-0.073l4.24,-8.677c2.332,-4.771 4.728,-10.026 5.322,-11.676l1.081,-3l0.881,-10.824l0.881,-10.824l1.798,-3.676l1.797,-3.676l1.5,0l1.5,0l-0.087,4.25c-0.047,2.337 0.045,4.25 0.205,4.25c0.159,0 1.499,-1.209 2.977,-2.686l2.686,-2.687l1.77,2.187c3.495,4.314 5.089,2.527 6.075,-6.814l0.688,-6.5l-0.863,-5c-0.476,-2.75 -1.581,-9.242 -2.459,-14.427l-1.595,-9.427l-2.947,-6.928c-1.622,-3.811 -2.948,-7.805 -2.948,-8.876l0,-1.947l2.908,-1.014l2.907,-1.014l0.585,-2.33c0.322,-1.281 1.088,-6.989 1.701,-12.685l1.116,-10.354l5.27,-18.5c2.898,-10.175 5.979,-21.65 6.846,-25.5l1.576,-7l1.189,-17.271l1.19,-17.271l-0.576,-12.229l-0.576,-12.229l-2.018,-13.033c-1.11,-7.168 -2.913,-17.293 -4.006,-22.5c-1.094,-5.207 -2.689,-14.867 -3.545,-21.467l-1.557,-12l-1.502,-33.147l-1.502,-33.148l-1.067,-7.853c-1.075,-7.904 -3.896,-18.464 -6.04,-22.614c-3.319,-6.423 -12.704,-20.7 -15.726,-23.923l-3.454,-3.685l-5.959,-3.315c-3.277,-1.823 -6.928,-3.9 -8.11,-4.615l-2.151,-1.299l-5.51,0.509l-5.51,0.509l-4.49,1.646c-2.47,0.905 -7.641,2.521 -11.49,3.591l-7,1.945l-15.226,0.592l-15.226,0.592l-1.504,-1.248l-1.503,-1.248l0.947,-1.771l0.947,-1.771l14.781,-0.48l14.782,-0.48l10.5,-2.709l10.5,-2.71l1.5,-1.495l1.5,-1.495l-3.5,-2.984c-5.313,-4.53 -5.532,-4.685 -11.833,-8.377l-5.879,-3.446l-4.747,-1.063c-6.594,-1.478 -9.427,-3.123 -14.956,-8.688l-4.791,-4.822l-1.809,-4l-1.81,-4l-1.641,-10.5l-1.64,-10.5l-1.251,-1.268l-1.251,-1.267l-5.784,6.628l-4.75,5.25l-9.75,6.25l-9.766,6.91l-6.367,1.041c-3.502,0.572 -9.867,0.549 -12.367,-0.576c-0.125,3.75 1.44,8.256 2.625,10.625c1.624,3.257 8.124,15.757 8.124,15.757s-1.854,0.377 -3.603,-1.594c0,0 -5.624,-8.311 -7.323,-12.046s-3.699,-12.985 -3.699,-12.985l0.024,4.781c-0.408,4.675 -0.625,6.972 -1.149,9.594c-0.625,3.125 -0.029,6.086 -1.875,9c-1.511,2.384 -5.204,4.584 -5.204,4.584l-4.016,3.692c-2.208,2.031 -7.275,5.928 -11.26,8.661l-7.245,4.969l-0.005,1.23l-0.005,1.23l21.236,0.27l21.237,0.27l0.336,1.747l0.336,1.747l-2.372,0.901l-2.371,0.902l-20.787,0.351l-20.786,0.352l-2.367,-2.75l-2.366,-2.75l-1.989,0l-1.989,0l-0.533,0.863c-0.293,0.475 -4.257,2.342 -8.809,4.149l-8.275,3.286l-5.003,3.18c-2.751,1.749 -6.485,4.664 -8.299,6.477l-3.297,3.297l-2.936,5.814l-2.935,5.814l-2.157,9.31l-2.157,9.31l-0.271,39.5l-0.272,39.5l-1.645,10.864l-1.645,10.864l-2.519,6.636c-1.385,3.649 -3.588,9.656 -4.896,13.348c-1.309,3.692 -3.023,7.967 -3.811,9.5s-2.188,5.713 -3.111,9.288l-1.679,6.5l-1.157,13l-1.156,13l0.017,28.5c0.009,15.675 0.221,43.35 0.472,61.5l0.457,33l-1.746,7.5c-2.105,9.043 -8.331,25.473 -11.059,29.183l-1.973,2.683l0.654,3.27l0.653,3.271l4.815,8.047c2.648,4.427 5.67,10.295 6.714,13.042l1.898,4.994l6.973,7.256c3.835,3.99 7.309,7.256 7.72,7.256l0.747,0l-1.555,-3.721l-1.555,-3.721l-4.538,-5.029l-4.539,-5.029l-1.388,-3.294c-0.763,-1.812 -2.266,-7.565 -3.341,-12.788c-1.074,-5.222 -2.41,-10.348 -2.968,-11.391c-0.559,-1.043 -1.015,-2.84 -1.015,-3.993l0,-2.097l1.537,-0.59l1.537,-0.591l1.845,1.67l1.844,1.669l1.513,5.702c0.832,3.136 2.071,8.512 2.754,11.946l1.241,6.244l1.293,1.756l1.293,1.756l0.74,-1.91l0.739,-1.91l-1.176,-10.59l-2.176,-10.59l-0.908,-11c0.122,-14.598 -0.717,-16.453 7.786,-54.352c1.305,-5.816 3.392,-19.504 5.937,-42.683l2.757,-21.363l2.073,-8.5l2.072,-8.5l4.415,-9.691c2.777,-5.226 5.883,-12.387 7.979,-15.411l3.809,-5.5l1.538,-7.5c0.847,-4.125 1.217,-9.976 2.046,-13c1.737,-6.339 2.659,-10.457 5.601,-25l2.123,-10.5l0.521,-7.522l0.521,-7.521l-2.448,-2.979c-3.885,-4.724 -9.454,-14.55 -11.202,-19.763l-1.604,-4.785l0.025,-6.215l0.025,-6.215l1.821,-8.051l1.822,-8.051l2.755,-5.449l2.755,-5.449l-0.476,-6.102l-0.475,-6.102l0.923,-1.648l0.922,-1.648l1.871,0l1.871,0l0.541,2.75c0.298,1.512 0.829,4.844 1.179,7.404l0.638,4.654l-3.511,7.846l-3.51,7.846l-1.693,8.437l-1.692,8.438l0.669,5.046l0.669,5.045l2.985,5.602c1.643,3.08 4.337,7.239 5.987,9.242l3.003,3.643l4.197,1.145l4.197,1.145l7.562,0.063l7.562,0.062l6.438,-3.022l6.438,-3.023l6.713,-5.159c7.313,-5.619 8.258,-5.98 9.202,-3.519l0.63,1.641l-1.57,2.396l-1.569,2.396l-5.983,4.404c-3.29,2.423 -8.388,5.581 -11.327,7.02l-5.345,2.614l-8.375,0.694l-8.375,0.694l0.318,15l0.318,15l-2.008,7.67c-3.603,13.77 -8.742,22.8 -20.755,36.469l-5.244,9.119l-3.472,6.493l-4.082,6.872l-2.098,5.99l-2.098,5.99l-1.961,9.141c-1.071,9.919 -3.027,15.285 -4.354,39.756l-0.896,16.5l-1.049,2.721c-0.578,1.496 -1.742,6.672 -2.589,11.5c-0.846,4.828 -2.672,13.729 -4.057,19.779l-2.519,11l-0.582,10.5l-0.582,10.5l1.685,9.5c0.926,5.225 2.282,13.1 3.013,17.5c1.633,9.824 2.714,14.009 5.943,23l2.515,7l0.025,4.532l0.026,4.532l1.406,4.968c2.636,9.314 21.394,63.937 25.451,74.117c2.226,5.582 5.995,13.682 8.378,18c2.383,4.317 4.931,9.305 5.662,11.082l1.33,3.232l-0.583,1.518l-0.582,1.519l-2.031,0l-2.031,0l0.007,3.75l0.008,3.75l1.913,6.29l1.913,6.291l3.329,3.981c1.831,2.19 5.276,5.99 7.656,8.444l4.326,4.463l-0.362,1.765l-0.361,1.766l-3.657,-0.286l-3.658,-0.286l0.554,3.409l0.553,3.409l-1.02,0.63l-1.021,0.63l-1.656,-0.635l-1.656,-0.636l-3.046,-5.397l-3.046,-5.396l-1.388,1.151l-1.388,1.152l-0.021,10.627l-0.021,10.628l1.519,10c0.835,5.5 2.182,14.5 2.993,20c0.813,5.5 2.402,13.825 3.535,18.5s2.734,11.875 3.561,16c2.834,14.16 9.828,44.747 12.004,52.5c0.772,2.75 2.277,8.824 3.345,13.5c1.067,4.675 3.189,13.675 4.715,20l2.774,11.5c0,0 0.337,11.155 -0.02,14s-1.733,7.29 -5.39,14.333c-2.904,5.599 -7.765,11.045 -8.657,12.538zm60.363,-14.531c-0.55,-2.312 -2.235,-6.526 -3,-8.667l-2.833,-5.667l-3.667,-10.5l1.807,11.822l-0.035,3.333c-0.043,4.031 -2.315,14.974 -3.513,16.911l-0.862,1.394l-0.729,2.374l1,2.333c-0.001,0 10.282,-9.645 11.832,-13.333zm106.858,-369.92l1.104,-5.425l3.238,-5.7l3.239,-5.699l0.573,-5.551l0.572,-5.55l-1.095,0l-1.095,0l-0.681,3.75c-0.774,4.271 -5.726,17.251 -7.837,20.549c-1.407,2.197 -1.905,4.57 -1.688,8.034l0.115,1.833l1.224,-0.407l1.224,-0.408l1.107,-5.426zm12.449,-11.043l0,-1l-1,0.618c-0.551,0.34 -1,1.068 -1,1.618l0,1l1,-0.618c0.549,-0.34 1,-1.068 1,-1.618zm10.984,-18.191l0.016,-4.809l-0.869,0.537l-0.868,0.536l-0.631,3.943l-0.631,3.942l0.639,1.663l0.639,1.664l0.845,-1.334l0.846,-1.334l0.014,-4.808zm-7.606,-5.01l0.655,-5.819l-1.017,0.628l-1.017,0.629l0,5.607c0.001,6.965 0.52,6.57 1.379,-1.045zm-27.805,-215.384l-1.493,-17.797l-3.533,-12.409c-1.942,-6.825 -3.785,-12.662 -4.094,-12.972l-0.563,-0.562l-0.922,1.472c-0.508,0.809 -2.799,7.281 -5.091,14.382l-4.169,12.912l-0.479,6.688l-0.479,6.688l4.564,8.512c2.51,4.682 5.884,10.486 7.498,12.9c1.613,2.414 3.273,5.514 3.689,6.889c0.415,1.375 1.934,4.75 3.375,7.5l2.621,5l0.283,-10.703l0.283,-10.702l-1.49,-17.798zm-177.447,-1.912l2.838,-6.13l1.503,-6.378l1.503,-6.377l-0.085,-8l-0.085,-8l-0.763,-2.5l-0.762,-2.5l-0.596,1.5c-0.328,0.825 -2.194,9.395 -4.148,19.043c-1.954,9.649 -3.998,19.096 -4.542,20.994c-0.544,1.897 -0.989,4.295 -0.989,5.328l0,1.88l1.645,-1.365l1.644,-1.364l2.837,-6.131zm27.553,-205.635l7.733,-6.25l3.294,-4.328c0,0 2.809,-2.952 3.293,-4.328s0,-4.738 0,-4.738c0,-2.606 0.479,-7.329 1.063,-10.494l1.063,-5.755l-0.673,-3.065l-0.674,-3.065l-6.54,-9.613l-6.539,-9.613l-3.326,-7l-3.326,-7l-1.559,-7.478l-1.559,-7.478l1.036,-4.832l1.036,-4.833l-0.597,-3.735l-0.598,-3.734l1.066,-10.59l1.065,-10.59l2.108,-5.634l2.107,-5.634l7.354,-5.438l7.354,-5.439l2.573,-4.39l2.573,-4.39l1.063,-5.751l1.063,-5.751l-0.551,-1.436l-0.552,-1.436l-3.268,1.675c-1.797,0.921 -3.493,1.979 -3.768,2.351c-0.275,0.372 -2.593,2.1 -5.149,3.839l-4.648,3.163l-3.134,3.956c-5.182,6.543 -10.191,14.137 -11.687,17.715l-1.409,3.373l-1.524,14.75c-0.839,8.112 -2.196,18.683 -3.016,23.492l-1.492,8.742l1.614,6.258c0.889,3.441 3.104,10.308 4.924,15.258c1.82,4.95 4.121,12.6 5.114,17l1.805,8l0.051,15l0.052,15l-2.75,7.31l-2.75,7.31l0,2.94l0,2.94l1.473,0l1.473,0l7.739,-6.254zm133.182,-16.911l-3.361,-14.338l-0.073,-33l-0.072,-33l-0.776,-7l-0.777,-7l-2.41,-7.407l-2.41,-7.407l-5.076,-9.557c-2.791,-5.256 -6.307,-11.148 -7.813,-13.093s-5.709,-8.036 -9.341,-13.536l-6.603,-10l-6.136,-6.276l-6.135,-6.276l-4.024,-2.54l-4.024,-2.541l-5.637,-0.917l-5.637,-0.917l-6.482,1.036l-6.482,1.036l-5.744,3.489l-5.744,3.489l-2.894,3.709c-3.535,4.529 -9.213,15.633 -9.199,17.989c0.005,0.946 1.059,3.973 2.341,6.728l2.332,5.007l3.646,3.2l3.646,3.201l3.763,0.991c2.07,0.545 6.781,1.507 10.47,2.138l6.707,1.146l2.169,1.882c1.193,1.035 3.228,3.315 4.52,5.067l2.351,3.185l1.504,5.088c0.827,2.798 2.595,6.872 3.928,9.051l2.424,3.963l6.338,3.582l6.338,3.582l3.706,4.903l3.706,4.903l1.114,4.645l1.113,4.644l-0.586,22.908l-0.586,22.908l1.369,7.049l1.371,7.05l1.88,2.87l1.881,2.87l7.023,3.25c3.863,1.788 10.848,5.741 15.521,8.784l8.497,5.533l0.864,-0.865l0.864,-0.865l-3.364,-14.341zm-41.503,-31.089c-0.115,-11.138 -0.243,-20.588 -0.284,-21c-0.1,-1.003 -2.249,-0.926 -3.934,0.142l-1.358,0.861l-0.319,9.874c-0.177,5.431 -0.067,13.116 0.242,17.08l0.563,7.206l1.852,3.044c1.018,1.674 2.211,3.044 2.65,3.044l0.8,0l-0.212,-20.251zm-91.941,-57.735l0.802,6.821l-0.688,1.114c-0.379,0.613 -1.07,2.444 -1.536,4.068l-0.847,2.953l0.858,6.07l0.857,6.07l2.911,6.194c1.602,3.407 6.4,11.49 10.665,17.963l8.862,17.872l2.653,1.441l2.654,1.441l2.5,0.022c1.375,0.013 5.479,-0.609 9.122,-1.381l6.621,-1.404l6.512,-5.256l6.495,-4.596l6.031,-6.022l7.065,-7.401l1.521,-2.943c1.274,-2.463 4.458,-13.927 4.507,-16.229l0.016,-0.687l-3.242,-0.313l-3.242,-0.313l-0.328,-1.735l-0.329,-1.735l3.52,-5.765c1.935,-3.17 3.782,-6.89 4.105,-8.265l0.587,-2.5l-4.604,-4.786l-4.605,-4.786l-2.994,-6.714c-1.646,-3.693 -3.741,-8.232 -4.654,-10.088l-1.66,-3.374l-2.132,-1.396l-2.132,-1.397l-7.603,-1.455l-7.602,-1.454l-4.644,-2.183l-4.644,-2.183l-4.008,-5.092c-2.204,-2.8 -4.401,-5.24 -4.883,-5.42l-0.876,-0.328l-8.927,7.128l-8.927,7.128l-1.579,3.948l-1.58,3.948l-0.645,5.486l-0.645,5.486l-0.403,2.998l0.468,2.808l0.627,6.242zm89.899,24.767l1.817,-3.718l-0.905,-1.618l-0.905,-1.618l-2.662,3.163l-2.661,3.164l0,2.497l0,2.497l1.75,-0.323l1.75,-0.323l1.816,-3.721z" id="svg_6"/>
   <path fill="#144EC5" stroke="#000000" stroke-width="6" stroke-linejoin="round" d="m81.608,353.90138c5.023,3.628 5.578,6.744 5.578,10.241s0.583,13.407 0,20.985s-6.69,29.135 -11.99,34.392c-13.589,13.48 -24.879,39.66 -26.628,53.649c0,0 35.517,23.729 101.538,22.664c82.667,-1.333 106.961,-26.764 106.961,-26.764l1.166,-18.653c0,0 -16.733,-41.971 -17.899,-47.217s0.582,-16.321 2.914,-20.985s5.806,-29.163 5.806,-29.163l9.798,28.053c0,0 3.117,16.476 3.563,32.952c0.236,8.742 -1.53,23.751 -2.303,35.917c-0.683,10.763 -0.369,19.299 -0.369,19.299s12.269,-2.795 26.047,-2.118c13.78,0.678 22.491,3.899 22.491,3.899c3.563,-12.023 2.226,-65.903 0,-77.926s-10.133,-54.771 -10.133,-54.771c-2.227,-12.468 -1.445,-41.412 -1.445,-41.412c1.336,-8.016 -0.672,-30.28 -2.928,-41.112c-2.337,-11.219 -8,-27.333 -12,-32s-10.666,-12 -14.666,-14.667s-29.86,-16.155 -29.86,-16.155s-14.802,35.359 -51.761,42.929c-3.158,17.133 -32.396,86.723 -32.396,86.723c-2.672,-29.797 -17.578,-68.466 -22.031,-84.051c-25.628,-3.997 -30.998,-24.755 -34.13,-33.108c0,0 -23.84,7.752 -39.322,19.493c-5.499,4.17 -9.55,9.479 -11.833,12.837c-5.667,8.333 -8.118,16.472 -8.666,26s1.321,22.643 1.945,30.642s-0.179,32.749 0.267,47.443s-4.453,27.608 -7.125,36.069s-12.023,28.499 -12.914,39.631c-0.451,5.634 -1.016,22.102 -1.464,36.995c0,0 8.304,-1.92 16.164,-0.937c8.186,1.024 18.468,3.082 18.468,3.082c2.072,-8.5 17.151,-32.461 17.151,-32.461l3.335,-17.366c0,-3.117 4.68,-26.272 6.461,-32.507s2.21,-20.522 2.21,-20.522z" id="svg_7"/>
   <path fill="#B3B3B3" stroke="#000000" stroke-width="4.9601" stroke-linejoin="round" d="m48.625,470.76838l-11.852,56.064c0,0 -7.001,50.666 -3.667,68s14.001,72.667 13.667,90c3.334,27.667 16.333,69.334 18.333,76.667s5,34.667 5,34.667s-0.931,34.684 -0.333,44.666c3.334,55.667 29,156 29,156s46.334,5.667 64.667,-12c2.666,-19.333 3,-98.667 5,-112s1.332,-38 -1.334,-49.333s-12.666,-38.667 -9.333,-46s5.667,-32 3.667,-42s-3.893,-32.044 -1.667,-49.333c1.89,-14.682 0.666,-32.667 1.333,-34.667s5,-21.333 5,-21.333l12.667,30c0,0 21.333,63.333 26,85.333s27.666,76.667 32.333,80.667s5.334,26 5.334,26s1.999,19.334 4.666,32s18.668,42 25.334,53.333s29.332,69.999 30.666,77.333s4.667,17.334 4.667,17.334s74.999,4 70.333,-8.667s-7.999,-29 -12,-46.667c-3.684,-16.268 -13,-74.667 -14.333,-88s-17.901,-51.716 -21.234,-56.383c5.968,8.349 -5.399,-37.967 -4.766,-31.617c-0.667,-6.666 -15.667,-43.333 -15.667,-49.333s-3.333,-89.333 -3.333,-89.333l-7.233,-35.207l-10.767,19.207l-10,11.333l-10.667,7.333l-12,-6.666l-0.666,-6.667l6,-16.667l0,-15.333l-4,-12l-8.667,18c0,0 -11.999,16.667 -11.333,-10s4.666,-22.667 4.666,-22.667s0.668,-9.334 1.334,-20s13.332,-20.666 12.666,-27.333s4,-80 4,-80s-42,28.667 -108.666,31.333c-56.622,2.266 -102.815,-26.064 -102.815,-26.064z" id="svg_8"/>
   <path fill="#784421" stroke="#000000" stroke-width="5" stroke-linecap="round" d="m257.607,479.99938c-10.006,6.444 -25.188,14.141 -40.885,18.856c-30.582,9.186 -63.115,12.644 -63.115,12.644l1,-14c0,0 23.5,-2 50,-8.5c28.704,-7.041 52.46,-19.931 52.46,-19.931l0.54,10.931z" id="svg_9"/>
   <path fill="#784421" stroke="#000000" stroke-width="5" stroke-linecap="round" d="m46.107,482.49938c29.5,19 94,28.5 94,28.5l0.5,-15.5c0,0 -21.857,1.526 -50,-7.5s-41.982,-17.231 -41.982,-17.231l-2.518,11.731z" id="svg_10"/>
   <path fill="none" stroke="#000000" stroke-width="5" stroke-linecap="round" d="m250.416,329.34638c-2.309,17.486 -14.236,30.601 -34.438,31.703" id="svg_11"/>
   <path fill="none" stroke="#000000" stroke-width="5" stroke-linecap="round" d="m103.444,358.62238c-18.67,3.544 -30.794,-16.424 -30.794,-16.424s-11.846,-18.091 -5.167,-37.684c0,0 6.63,-14.7 7.713,-18.482s-2.35,-14.376 -2.35,-14.376" id="svg_12"/>
   <path fill="none" stroke="#000000" stroke-width="5" stroke-linecap="round" d="m42.052,518.46638c0,0 25.5,-1.5 31.499,-22.499" id="svg_13"/>
   <path fill="none" stroke="#000000" stroke-width="5" stroke-linecap="round" d="m239.044,490.46738c0,0 9.063,13.032 18.844,14.688" id="svg_14"/>
   <ellipse fill="#DCDDDE" stroke="#000000" stroke-width="4" stroke-linecap="round" stroke-linejoin="round" cx="148.107" cy="504.74938" rx="15" ry="8.25" id="svg_15"/>
   <polygon fill="#B3B3B3" stroke="#000000" stroke-width="4" stroke-linecap="round" stroke-linejoin="round" points="97.60696411132812,490.000079870224 96.10699462890625,502.5000493526459 87.60696411132812,499.500079870224 88.60696411132812,487.500079870224 " id="svg_16"/>
   <polygon fill="#B3B3B3" stroke="#000000" stroke-width="4" stroke-linecap="round" stroke-linejoin="round" points="208.10699462890625,488.000079870224 209.60699462890625,500.5000493526459 218.10699462890625,497.500079870224 217.10699462890625,485.500079870224 " id="svg_17"/>
   <path fill="none" stroke="#000000" stroke-width="5" stroke-linecap="round" stroke-linejoin="bevel" d="m248.944,356.16738c0,0 -0.78,-12.914 1.445,-26.272c3.677,-22.071 -4.46,-40.967 -4.46,-40.967" id="svg_18"/>
   <path fill="none" stroke="#000000" stroke-width="5" stroke-linecap="round" stroke-linejoin="bevel" d="m261.107,387.16638c0,0 8,9.667 10.334,19.667" id="svg_19"/>
   <path fill="none" stroke="#000000" stroke-width="4" stroke-linecap="round" stroke-linejoin="bevel" d="m62.44,380.49938c0,0 -3.333,-9 -2.333,-19.667" id="svg_20"/>
  </g>
 </g>
</svg>