<?xml version="1.0" encoding="utf-8"?>
<!-- Generator: Adobe Illustrator 15.0.2, SVG Export Plug-In . SVG Version: 6.00 Build 0)  -->
<!DOCTYPE svg PUBLIC "-//W3C//DTD SVG 1.1//EN" "http://www.w3.org/Graphics/SVG/1.1/DTD/svg11.dtd">
<svg version="1.1"
	 id="svg2211" sodipodi:docbase="C:\Documents and Settings\admin\My Documents\Gary&apos;s Files\Images for SVG replacement\SVG equivalents" inkscape:version="0.45.1" sodipodi:version="0.32" sodipodi:docname="Human.svg" inkscape:output_extension="org.inkscape.output.svg.inkscape" xmlns:inkscape="http://www.inkscape.org/namespaces/inkscape" xmlns:sodipodi="http://sodipodi.sourceforge.net/DTD/sodipodi-0.dtd" xmlns:svg="http://www.w3.org/2000/svg" xmlns:rdf="http://www.w3.org/1999/02/22-rdf-syntax-ns#" xmlns:cc="http://web.resource.org/cc/" xmlns:dc="http://purl.org/dc/elements/1.1/"
	 xmlns="http://www.w3.org/2000/svg" xmlns:xlink="http://www.w3.org/1999/xlink" x="0px" y="0px" width="1051px" height="1258px"
	 viewBox="0 0 1051 1258" enable-background="new 0 0 1051 1258" xml:space="preserve">
<g>
	<polygon fill="#FFFFFF" points="687.943,788.456 642.946,761.457 623.447,741.958 606.948,710.46 621.947,665.462 620.447,534.968 
		627.946,501.97 642.446,471.971 642.946,398.475 650.445,344.478 671.444,327.979 690.943,317.479 702.943,291.98 702.943,257.482 
		688.443,213.984 695.443,165.987 713.442,135.988 740.441,120.989 773.439,108.99 797.438,117.989 827.437,155.487 
		842.437,185.486 842.437,240.983 846.936,278.481 851.436,308.479 875.435,321.979 893.434,350.478 897.934,386.476 
		899.434,429.974 905.433,477.971 914.433,537.968 914.433,569.467 897.934,624.964 891.934,657.962 899.434,696.96 
		896.434,711.959 902.433,740.458 872.435,771.956 894.934,891.95 947.431,1059.942 968.43,1140.938 1002.928,1178.437 
		998.429,1212.935 965.43,1202.435 935.432,1173.937 932.432,1140.938 870.935,899.45 816.938,786.956 864.935,555.967 
		866.435,498.97 851.436,456.972 686.943,465.472 678.313,499.257 674.775,526.855 737.441,893.45 752.44,1079.441 756.94,1100.44 
		768.939,1128.938 768.939,1143.938 738.941,1167.937 719.442,1191.936 689.443,1187.436 684.944,1167.937 715.442,1129.439 
		717.441,1113.939 715.441,1101.939 719.442,896.45 	"/>
	<path fill="#8EC8F0" stroke="#000000" stroke-width="2" stroke-linecap="round" stroke-linejoin="bevel" d="M730.667,356.833
		c14.667,10,40,10.667,68.667,0L754,452.167L730.667,356.833z"/>
	<path fill="#8EC8F0" stroke="#000000" stroke-width="2" stroke-linecap="round" stroke-linejoin="bevel" d="M622.212,573.656
		l-0.502-13.042l17.183-9.885L656,564.833l-3.482,11.936C643.182,572.744,632.306,573.177,622.212,573.656z"/>
	<path fill="#8EC8F0" stroke="#000000" stroke-width="2" stroke-linecap="round" stroke-linejoin="bevel" d="M863.791,590.1
		l-0.502-13.042l24.763-10.766l24.591,9.181l-4.591,20C897.56,588.587,873.885,589.62,863.791,590.1z"/>
	<path d="M667.665,1205.097c-0.498-2.596-1.083-6.113-1.164-7.763c-0.081-1.65,2.378-15.701,7.249-21.334
		s14.069-14.648,14.069-14.648l4.72-4.598l4.721-4.598l3.69-5.77c2.029-3.174,3.69-5.971,3.69-6.217s2.204-3.95,4.897-8.23
		l4.898-7.783l0.648-3.101l0.648-3.102l-1.083-8.713c-0.595-4.792-2.211-13.522-3.591-19.399
		c-3.188-13.575-16.132-66.511-17.436-71.302c-0.541-1.989-0.983-4.941-0.983-6.562s-0.949-6.518-2.108-10.884
		c-4.579-17.242-7.286-32.968-9.974-57.938l-0.968-9l0.649-8.5c0.357-4.675,1.419-12.293,2.358-16.929l1.708-8.429l-0.814-4.071
		c-0.448-2.239-1.968-10.485-3.377-18.325l-2.563-14.254l-3.896-9.83c-2.144-5.407-9.373-26.218-16.067-46.246l-12.171-36.416
		l-3.586-4.409c-1.973-2.425-7.396-8.489-12.053-13.478l-8.467-9.068l-4.38-9.022c-2.409-4.963-5.89-11.872-7.735-15.354
		l-3.354-6.331l-0.474-3.169l-0.473-3.169l0.928-2.5c0.51-1.375,2.003-4.075,3.318-6l2.391-3.5l3.073-9.207l3.072-9.207l1.52-10.157
		l1.519-10.157l-1.064-30.636c-0.585-16.85-1.044-40.986-1.02-53.636l0.045-23l0.894-13.5l0.894-13.5l1.662-8l1.663-8l2.348-5.5
		c1.292-3.025,4.214-10.384,6.494-16.353l4.146-10.853l1.526-7.147l1.526-7.147l0.74-44l0.739-44l2.179-9.303l2.179-9.303
		l3.476-6.903l3.477-6.903l4.58-4.389l4.58-4.389l7.18-3.966c3.948-2.182,9.204-4.726,11.68-5.653
		c2.475-0.927,5.979-2.591,7.789-3.698l3.29-2.012l1.83-4.27c1.007-2.348,2.339-6.642,2.96-9.541
		c0.622-2.899,1.877-6.711,2.789-8.471l1.659-3.2l-0.064-14.5l-0.064-14.5l-1.991-8c-1.095-4.4-3.816-13.248-6.048-19.661
		l-4.058-11.661l-0.631-4.839l-0.631-4.839l1.614-9.244c0.888-5.083,2.279-15.659,3.093-23.5l1.478-14.256l3.093-6
		c3.339-6.478,9.304-14.679,14.893-20.478c6.003-6.229,17.055-12.957,43.177-26.283l3.677-1.876l8.132-1.42l8.133-1.419l7.122,1.01
		l7.122,1.01l4.568,2.728l4.569,2.728l6.657,7l6.657,7l6.591,10c3.624,5.5,7.887,11.8,9.472,14c1.585,2.2,4.805,7.6,7.155,12
		c2.35,4.4,4.642,8.675,5.094,9.5c0.452,0.825,1.952,4.889,3.333,9.031l2.51,7.531l0.989,9.539l0.989,9.539l0.005,30.075
		l0.005,30.075l2.598,11.855c1.43,6.521,3.202,14.78,3.939,18.355c0.738,3.575,1.645,7.27,2.015,8.21l0.674,1.709l7.533,4.134
		l7.533,4.135l4.402,4.058l4.402,4.058l7.079,11.341l7.08,11.341l2.324,7.535l2.325,7.535l1.063,9.222
		c0.585,5.072,1.476,12.995,1.979,17.606l0.917,8.384l0.12,16.116l0.119,16.116l1.019,12c1.215,14.3,3.23,28.279,5.888,40.821
		c1.069,5.048,2.396,12.328,2.95,16.179c0.553,3.85,1.533,10.149,2.179,14l1.175,7l0.005,19l0.006,19l-1.108,10.5l-1.109,10.5
		l-2.128,8.5c-1.17,4.675-3.914,14.529-6.097,21.899l-3.968,13.399l-1.937,14.101c-1.065,7.755-2.588,16.469-3.384,19.364
		l-1.446,5.264l1.918,7.322c1.055,4.027,2.756,12.684,3.78,19.236l1.861,11.914l-0.72,8.5l-0.721,8.5l1.019,4.972l1.018,4.972
		l-0.62,8.06l-0.619,8.06l1.841,11.469l1.841,11.469l0.224,32c0.123,17.6,0.395,36.725,0.604,42.5l0.382,10.5l1.509,10.5
		c0.83,5.774,2.223,12.975,3.095,16c2.591,8.987,3.493,13.094,4.612,21c0.584,4.125,1.89,12.599,2.901,18.83l1.84,11.331
		l4.067,6.244l4.068,6.244l5.022,11.219l5.022,11.219l1.849,7.707c1.018,4.238,2.781,10.855,3.921,14.706
		c2.321,7.843,4.717,21.463,5.627,32c0.803,9.282,2.297,22.415,4.151,36.5c6.889,52.291,7.936,57.655,14.277,73.127l3.842,9.373
		l6.592,9.807c9.347,13.904,10.763,15.591,24.436,29.097l9.245,12.097l3.708,6l2.709,6l5.017,14.669
		c-0.394,12.823-1.816,13.069-2.915,18.58l-3.282,4.415l-3.363,2.889l-3.363,2.889l-3.5,1.023c-1.926,0.563-3.056,0.47-4.155,0.468
		l-3.345-0.452l-5.456-1.54l-5.455-2.539l-10.535-4.837l-10.565-8.855l-3.116-4.354c-1.715-2.396-5.905-9.624-9.313-16.065
		l-6.195-11.71l-3.183-1.962c-1.75-1.079-4.532-2.285-6.182-2.68c-4.528-1.084-8.193-3.166-12.625-7.169l-4.005-3.618l-1.436-2.775
		l-1.435-2.776l-0.989-5.299l1.011-5.3l1.489-4.909l1.489-4.909v-5.707v-5.708l-1.917-4.884c-1.055-2.686-3.135-8.708-4.623-13.383
		c-6.047-18.996-20.999-48.933-45.45-91c-13.926-23.959-16.959-30.59-21.244-46.444l-2.178-8.056l0.236-18.174l0.235-18.175
		l-4.714-7.825c-2.594-4.305-6.362-10.526-8.375-13.826c-8.189-13.423-17.76-37.819-22.949-58.5
		c-8.527-33.979-18.301-63.748-27.251-83c-5.026-10.813-12.203-26.975-14.432-32.5c-1.331-3.3-3.081-7.486-3.889-9.304l-1.469-3.303
		l-0.851,0.525l-0.85,0.524l-0.602,13.778c-0.331,7.578-1.084,18.729-1.673,24.778s-1.448,17.75-1.911,26l-0.84,15l2.366,21
		c1.301,11.55,2.368,23.253,2.371,26.007l0.007,5.007l-2.707,11.493l-2.706,11.493l0.122,3.5c0.206,5.876,2.267,16.104,4.836,24
		l2.44,7.5l1.601,10.945l1.601,10.945l-0.484,13.055l-0.485,13.055l-1.667,10.5l-1.668,10.5l-0.365,25l-0.366,25l-1.769,24.448
		l-1.77,24.448l3.056,11.552c1.68,6.354,4.951,17.401,7.27,24.552l4.215,13l-0.426,4.707l-0.425,4.708l-2.563,3.359l-2.562,3.358
		l-13.637,6.683l-13.636,6.684l-2.556,2.75c-3.082,3.317-5.946,8.764-8.478,16.123c-2.355,6.845-5.85,12.826-9.546,16.338
		l-2.852,2.709l-3.781,2.926l-4.333,2.666l-4.834,1.834l-6,1.666l-6.5,1.667c0,0-5.65,0.577-7.825,0.455s-7.175-1.622-7.175-1.622
		l-5.526-3.34L670,1211L667.665,1205.097z M904.659,944.179l-1.191-1.436l1.964-5.265l1.965-5.266l1.603-1.012l1.604-1.011
		l1.603,1.603l1.603,1.603l-2.224,5.17l-2.225,5.171l-1.755,0.938l-1.754,0.939L904.659,944.179z M880.547,938.44l-4.092-4.217
		l-2.494-4.921l-2.493-4.921l-0.531-5.144l-0.53-5.143l1.617-1.343l1.617-1.342l1.5,1.245l1.5,1.245l0.01,3.627l0.01,3.628l2.37,5
		l2.371,5l4.119,3.953l4.12,3.953v1.797v1.797h-2.502h-2.501L880.547,938.44z M752.573,328.589l-2.066-2.067l1.261-1.52l1.261-1.519
		l2.631,0.526l2.631,0.526l4.425-2.936l4.426-2.936l3.215-0.004l3.215-0.004l0.988,1.847l0.988,1.847l-1.153,1.153
		c-0.635,0.634-1.851,1.153-2.703,1.153s-4.025,1.333-7.05,2.96l-5.5,2.96l-2.25,0.04l-2.25,0.04L752.573,328.589z M756.92,316.636
		l-2.22-0.893l-0.624-2.486l-0.624-2.487l0.653-1.057l0.652-1.057h3.081h3.081l1.377-1.75c1.777-2.26,3.805-6.83,7.432-16.75
		c1.608-4.4,3.814-9.463,4.903-11.25l1.979-3.25h2.015h2.015v1.875c0,1.032-1.061,4.294-2.355,7.25
		c-1.296,2.956-3.347,8.38-4.559,12.054c-1.211,3.674-3.564,9.195-5.229,12.268l-3.026,5.589l-2.866,1.481
		c-1.575,0.815-3,1.453-3.165,1.418C759.275,317.558,758.141,317.127,756.92,316.636z M706.971,1146.032
		c-2.015,3.368-5.656,7.468-7.971,10.218l-5.75,5l-6.308,5.618c0,0-0.314,8.15,9.559,11.966c14.666,5.667,26.166,3.333,26.166,3.333
		s4.5-5,5.667-9.5c1.123-4.329,8.333-13.499,12.833-17.166s10.667-8.5,10.667-8.5l-2.07-2.845l1.45-8l1.45-8l0.051-6.17l0.051-6.17
		l-1.563-5.262l-1.563-5.262v-3.866v-3.866l2.595-2.405l2.596-2.405l1.395-16.297l1.395-16.297l0.845-27
		c0.465-14.851,0.834-29.7,0.821-33l-0.024-6l1.725-11.5l1.725-11.5l0.593-11.5l0.592-11.5l-1.671-11.311l-1.671-11.312
		l-2.563-7.188c-1.409-3.954-2.983-7.636-3.498-8.182l-0.937-0.991l-0.942,1.491l-0.943,1.492l-0.016,7.668
		c-0.008,4.218-0.288,8.38-0.622,9.25l-0.607,1.582h-1.925h-1.925l-0.832-2.248l-0.831-2.248l0.194-8.002l0.195-8.002l2.619-6.5
		c1.439-3.575,4.034-11.45,5.764-17.5l3.146-11l0.54-9.795l0.541-9.795l-2.322-22.471l-2.322-22.471l1.71-20.234
		c0.94-11.129,2.198-29.2,2.794-40.157l1.084-19.924l-0.715-10.483l-0.714-10.483l-8.144-8.594
		c-4.479-4.727-9.718-10.318-11.643-12.426c-3.713-4.064-16.309-21.925-20.467-29.019l-2.479-4.231l-11.508-12.239
		c-6.33-6.731-12.012-13.178-12.625-14.325l-1.116-2.086l1.492-1.492l1.491-1.492l1.518,0.858
		c0.834,0.473,6.775,6.465,13.202,13.316l11.685,12.457l8.504,12.543c13.117,19.349,13.643,20.033,21.776,28.379l7.637,7.836
		l1.205-0.463l1.204-0.462l1.254-4.688l1.255-4.689l4.85-7.185l4.851-7.185l4.683-4.313l4.683-4.313l2.125,0.313l2.125,0.313
		l0.378,1.147l0.377,1.148l-6.407,7.217c-3.524,3.97-7.862,9.617-9.641,12.551l-3.232,5.334l-0.539,7.863l-0.539,7.863l2.069,4.677
		c1.138,2.573,3.486,9.68,5.218,15.793l3.147,11.114l4.913,10.888c2.702,5.988,4.913,11.148,4.913,11.467s2.218,5.159,4.928,10.758
		c5.687,11.745,14.313,33.988,17.132,44.176c1.066,3.853,2.868,10.153,4.005,14.004c2.237,7.578,3.127,10.852,7.828,28.781
		c7.047,26.882,17.092,50.681,28.247,66.928c1.022,1.49,1.862,3.065,1.864,3.5c0.003,0.436,1.664,2.591,3.691,4.791l3.688,4
		l3.793,8.5l3.793,8.5l0.016,2.281l0.016,2.281l-1.656,0.636l-1.655,0.635l-1.885-2.326l-1.884-2.327l-1.074,1.073l-1.073,1.074
		l0.468,10.836l0.469,10.837l2.648,9l2.647,9l5.396,10.5c2.968,5.774,7.457,13.875,9.977,18s6.896,12,9.725,17.5
		s5.938,11.125,6.906,12.5c2.242,3.18,18.669,35.945,23.313,46.5c1.936,4.399,5.334,13.399,7.552,20
		c6.993,20.808,7.765,22.792,12.498,32.151c0,0,24.184,33.042,35.485,39.746s25.105-7.254,25.105-7.254s2.285-5.771,1.136-7.304
		c-2.125-2.833-12.66-17.286-16.124-21.658c-2.041-2.575-5.323-7.215-7.296-10.312l-4.808-6.87l-3.853-8.25
		c-2.119-4.538-4.795-11.064-5.947-14.504l-2.094-6.253l-2.015-11.747c-2.753-16.055-7.443-51.371-9.396-70.746
		c-0.887-8.8-2.325-20.5-3.197-26l-1.585-10l-2.327-7.5c-1.279-4.125-2.649-9.3-3.044-11.5c-1.06-5.921-4.658-15.86-9.346-25.819
		l-4.151-8.819l-1.208,0.401l-1.207,0.401l-0.868,4.722l-0.868,4.723l-2.132-0.305l-2.132-0.304l-0.67-18l-0.669-18l-1.081-3.493
		l-1.08-3.494v-5.074v-5.074l-2.015-7.432c-1.108-4.088-2.699-9.908-3.536-12.933c-0.836-3.025-2.208-10-3.048-15.5l-1.527-10
		l-0.47-42.5l-0.47-42.5l-1.037-7.849c-0.569-4.316-1.278-8.479-1.574-9.25l-0.538-1.401h-1.219c-1.801,0-4.926,3.717-8.984,10.686
		l-3.604,6.187l-1.864,0.592c-1.025,0.325-3.474,2.154-5.44,4.063l-3.575,3.473h-1.517h-1.516l-3.5-3.5
		c-1.925-1.925-3.933-3.5-4.462-3.5s-1.669-0.707-2.533-1.571l-1.571-1.571l0.003-4.679l0.004-4.679l2.962-7.5l2.962-7.5l0.029-6.5
		l0.028-6.5l-1.041-3.75l-1.042-3.75h-0.917c-1.225,0-2.839,3.139-4.54,8.828l-1.396,4.672l-2.556,2.738l-2.556,2.738l-2.511,0.63
		l-2.511,0.631l-1.96-1.774l-1.959-1.773l0.035-13.095l0.035-13.095l1.43-6.5l1.43-6.5l0.035-6.803l0.035-6.803l1.623-7.197
		l1.623-7.197l2.014-3.978c1.106-2.188,3.028-5.563,4.271-7.5l2.258-3.522l1.074-5l1.074-5l0.892-18.5
		c0.49-10.175,0.895-20.75,0.898-23.5s0.304-11.631,0.668-19.734l0.661-14.735l-3.442-10.395
		c-3.733-11.274-8.104-20.853-14.942-32.739c-2.405-4.183-4.891-9.087-5.522-10.899l-1.148-3.296l0.048-5.601l0.048-5.601l3.342-11
		c1.838-6.05,4.741-15.461,6.452-20.913l3.11-9.913v-4.837v-4.837l-0.75,0.009c-0.413,0.005-3.28,2.175-6.373,4.822l-5.622,4.813
		l-5.378,2.371l-5.377,2.371l-7.5-0.067l-7.5-0.066l-7.5-2.448l-7.5-2.448l-7-5.119l-7-5.118l-1.754-2.969l-1.753-2.969l0.61-1.591
		l0.61-1.59h1.824h1.825l2.086,2.929l2.085,2.929l5.965,3.983l5.965,3.982l7.771,2.589c4.274,1.423,8.505,2.588,9.402,2.588
		c2.021,0,11.078-2.675,16.134-4.765l3.771-1.559l3.979-4.316l3.979-4.315l0.009-1.272c0.005-0.7,1.116-3.522,2.469-6.272l2.46-5
		l0.031-6.032l0.031-6.032l-1.32-5.089l-1.32-5.089l-3.521-4.879c-1.937-2.684-3.828-5.73-4.203-6.77l-0.681-1.891l1.598-2.438
		l1.597-2.438l-0.76-4.171c-0.886-4.855-0.639-6.89,0.961-7.894l1.15-0.722l3.217,0.393c1.769,0.216,3.7,0.691,4.291,1.057
		l1.075,0.665l-0.155,7.165l-0.155,7.166l1.072,8.777c0.589,4.828,1.358,9.242,1.709,9.81l0.638,1.032l0.828,19.19l0.827,19.19
		l1.479,4.5c0.813,2.475,1.971,7.447,2.571,11.049c0.601,3.603,1.755,8.783,2.565,11.514l1.475,4.963l2.585,3.487
		c3.023,4.077,5.898,10.179,8.611,18.274l1.939,5.787l-0.596,0.963l-0.595,0.963h-1.882h-1.883l-0.617-1c-0.34-0.55-1.046-1-1.568-1
		h-0.949l0.662,24.285l0.662,24.285l-1.178,6.465l-1.178,6.465l-0.415,10c-0.229,5.5-0.86,12.25-1.405,15l-0.991,5l-0.56,22
		l-0.559,22l-1.556,6.492l-1.556,6.491l-3.411,5.009l-3.41,5.008l-2.045,7.479l-2.044,7.48v6.16v6.161l-2.587,9.859l-2.587,9.859
		l0.394,8.724l0.394,8.723l0.741,0.741l0.741,0.741l1.702-1.062l1.702-1.063l1.323-3.902c2.822-8.322,6.228-22.372,7.093-29.267
		l0.906-7.218l1.202-1.448l1.202-1.448l0.953,0.59l0.954,0.59l-0.637,8.649l-0.637,8.649l2.632,7.5l2.632,7.5l0.569,9l0.57,9
		l-2.741,6.85l-2.74,6.85l-0.522,3.9l-0.523,3.9l0.882-0.074l0.882-0.073l4.24-8.677c2.332-4.771,4.728-10.026,5.322-11.676l1.081-3
		l0.881-10.824l0.881-10.824l1.798-3.676l1.797-3.676h1.5h1.5l-0.087,4.25c-0.047,2.337,0.045,4.25,0.205,4.25
		c0.159,0,1.499-1.209,2.977-2.686l2.686-2.687l1.77,2.187c3.495,4.314,5.089,2.527,6.075-6.814l0.688-6.5l-0.863-5
		c-0.476-2.75-1.581-9.242-2.459-14.427l-1.595-9.427l-2.947-6.928c-1.622-3.811-2.948-7.805-2.948-8.876v-1.947l2.908-1.014
		l2.907-1.014l0.585-2.33c0.322-1.281,1.088-6.989,1.701-12.685l1.116-10.354l5.27-18.5c2.898-10.175,5.979-21.65,6.846-25.5
		l1.576-7l1.189-17.271l1.19-17.271l-0.576-12.229l-0.576-12.229l-2.018-13.033c-1.11-7.168-2.913-17.293-4.006-22.5
		c-1.094-5.207-2.689-14.867-3.545-21.467l-1.557-12l-1.502-33.147l-1.502-33.148l-1.067-7.853
		c-1.075-7.904-3.896-18.464-6.04-22.614c-3.319-6.423-12.704-20.7-15.726-23.923l-3.454-3.685l-5.959-3.315
		c-3.277-1.823-6.928-3.9-8.11-4.615l-2.151-1.299l-5.51,0.509l-5.51,0.509l-4.49,1.646c-2.47,0.905-7.641,2.521-11.49,3.591
		l-7,1.945l-15.226,0.592l-15.226,0.592l-1.504-1.248l-1.503-1.248l0.947-1.771l0.947-1.771l14.781-0.48l14.782-0.48l10.5-2.709
		l10.5-2.71l1.5-1.495l1.5-1.495l-3.5-2.984c-5.313-4.53-5.532-4.685-11.833-8.377l-5.879-3.446l-4.747-1.063
		c-6.594-1.478-9.427-3.123-14.956-8.688l-4.791-4.822l-1.809-4l-1.81-4l-1.641-10.5l-1.64-10.5l-1.251-1.268l-1.251-1.267
		l-5.784,6.628l-4.75,5.25l-9.75,6.25l-9.766,6.91l-6.367,1.041c-3.502,0.572-9.867,0.549-12.367-0.576
		c-0.125,3.75,1.44,8.256,2.625,10.625C742.5,287,749,299.5,749,299.5s-1.854,0.377-3.603-1.594c0,0-5.624-8.311-7.323-12.046
		s-3.699-12.985-3.699-12.985l0.024,4.781c-0.408,4.675-0.625,6.972-1.149,9.594c-0.625,3.125-0.029,6.086-1.875,9
		c-1.511,2.384-5.204,4.584-5.204,4.584l-4.016,3.692c-2.208,2.031-7.275,5.928-11.26,8.661l-7.245,4.969l-0.005,1.23l-0.005,1.23
		l21.236,0.27l21.237,0.27l0.336,1.747l0.336,1.747l-2.372,0.901l-2.371,0.902l-20.787,0.351l-20.786,0.352l-2.367-2.75l-2.366-2.75
		h-1.989h-1.989l-0.533,0.863c-0.293,0.475-4.257,2.342-8.809,4.149l-8.275,3.286l-5.003,3.18c-2.751,1.749-6.485,4.664-8.299,6.477
		l-3.297,3.297l-2.936,5.814l-2.935,5.814l-2.157,9.31l-2.157,9.31l-0.271,39.5l-0.272,39.5l-1.645,10.864l-1.645,10.864
		l-2.519,6.636c-1.385,3.649-3.588,9.656-4.896,13.348c-1.309,3.692-3.023,7.967-3.811,9.5s-2.188,5.713-3.111,9.288l-1.679,6.5
		l-1.157,13l-1.156,13l0.017,28.5c0.009,15.675,0.221,43.35,0.472,61.5l0.457,33l-1.746,7.5
		c-2.105,9.043-8.331,25.473-11.059,29.183l-1.973,2.683l0.654,3.27l0.653,3.271l4.815,8.047c2.648,4.427,5.67,10.295,6.714,13.042
		l1.898,4.994l6.973,7.256c3.835,3.99,7.309,7.256,7.72,7.256h0.747l-1.555-3.721l-1.555-3.721l-4.538-5.029l-4.539-5.029
		l-1.388-3.294c-0.763-1.812-2.266-7.565-3.341-12.788c-1.074-5.222-2.41-10.348-2.968-11.391c-0.559-1.043-1.015-2.84-1.015-3.993
		v-2.097l1.537-0.59l1.537-0.591l1.845,1.67l1.844,1.669l1.513,5.702c0.832,3.136,2.071,8.512,2.754,11.946l1.241,6.244l1.293,1.756
		l1.293,1.756l0.74-1.91l0.739-1.91l-1.176-10.59l-2.176-10.59l-0.908-11c0.122-14.598-0.717-16.453,7.786-54.352
		c1.305-5.816,3.392-19.504,5.937-42.683l2.757-21.363l2.073-8.5l2.072-8.5l4.415-9.691c2.777-5.226,5.883-12.387,7.979-15.411
		l3.809-5.5l1.538-7.5c0.847-4.125,1.217-9.976,2.046-13c1.737-6.339,2.659-10.457,5.601-25l2.123-10.5l0.521-7.522l0.521-7.521
		l-2.448-2.979c-3.885-4.724-9.454-14.55-11.202-19.763l-1.604-4.785l0.025-6.215l0.025-6.215l1.821-8.051l1.822-8.051l2.755-5.449
		l2.755-5.449l-0.476-6.102l-0.475-6.102l0.923-1.648l0.922-1.648h1.871h1.871l0.541,2.75c0.298,1.512,0.829,4.844,1.179,7.404
		l0.638,4.654l-3.511,7.846l-3.51,7.846l-1.693,8.437l-1.692,8.438l0.669,5.046l0.669,5.045l2.985,5.602
		c1.643,3.08,4.337,7.239,5.987,9.242l3.003,3.643l4.197,1.145l4.197,1.145l7.562,0.063l7.562,0.062l6.438-3.022l6.438-3.023
		l6.713-5.159c7.313-5.619,8.258-5.98,9.202-3.519l0.63,1.641l-1.57,2.396l-1.569,2.396l-5.983,4.404
		c-3.29,2.423-8.388,5.581-11.327,7.02l-5.345,2.614l-8.375,0.694l-8.375,0.694l0.318,15l0.318,15l-2.008,7.67
		c-3.603,13.77-8.742,22.8-20.755,36.469l-5.244,9.119l-3.472,6.493l-4.082,6.872l-2.098,5.99l-2.098,5.99l-1.961,9.141
		c-1.071,9.919-3.027,15.285-4.354,39.756l-0.896,16.5l-1.049,2.721c-0.578,1.496-1.742,6.672-2.589,11.5
		c-0.846,4.828-2.672,13.729-4.057,19.779l-2.519,11l-0.582,10.5l-0.582,10.5l1.685,9.5c0.926,5.225,2.282,13.1,3.013,17.5
		c1.633,9.824,2.714,14.009,5.943,23l2.515,7l0.025,4.532l0.026,4.532l1.406,4.968c2.636,9.314,21.394,63.937,25.451,74.117
		c2.226,5.582,5.995,13.682,8.378,18c2.383,4.317,4.931,9.305,5.662,11.082l1.33,3.232l-0.583,1.518l-0.582,1.519h-2.031h-2.031
		l0.007,3.75l0.008,3.75l1.913,6.29l1.913,6.291l3.329,3.981c1.831,2.19,5.276,5.99,7.656,8.444l4.326,4.463l-0.362,1.765
		l-0.361,1.766l-3.657-0.286l-3.658-0.286l0.554,3.409l0.553,3.409l-1.02,0.63l-1.021,0.63l-1.656-0.635l-1.656-0.636l-3.046-5.397
		l-3.046-5.396l-1.388,1.151l-1.388,1.152l-0.021,10.627l-0.021,10.628l1.519,10c0.835,5.5,2.182,14.5,2.993,20
		c0.813,5.5,2.402,13.825,3.535,18.5s2.734,11.875,3.561,16c2.834,14.16,9.828,44.747,12.004,52.5
		c0.772,2.75,2.277,8.824,3.345,13.5c1.067,4.675,3.189,13.675,4.715,20l2.774,11.5c0,0,0.337,11.155-0.02,14
		s-1.733,7.29-5.39,14.333C712.724,1139.093,707.863,1144.539,706.971,1146.032z M767.334,1131.501c-0.55-2.312-2.235-6.526-3-8.667
		l-2.833-5.667l-3.667-10.5l1.807,11.822l-0.035,3.333c-0.043,4.031-2.315,14.974-3.513,16.911l-0.862,1.394l-0.729,2.374l1,2.333
		C755.501,1144.834,765.784,1135.189,767.334,1131.501z M874.192,761.581l1.104-5.425l3.238-5.7l3.239-5.699l0.573-5.551l0.572-5.55
		h-1.095h-1.095l-0.681,3.75c-0.774,4.271-5.726,17.251-7.837,20.549c-1.407,2.197-1.905,4.57-1.688,8.034l0.115,1.833l1.224-0.407
		l1.224-0.408L874.192,761.581z M886.641,750.538v-1l-1,0.618c-0.551,0.34-1,1.068-1,1.618v1l1-0.618
		C886.19,751.816,886.641,751.088,886.641,750.538z M897.625,732.347l0.016-4.809l-0.869,0.537l-0.868,0.536l-0.631,3.943
		l-0.631,3.942l0.639,1.663l0.639,1.664l0.845-1.334l0.846-1.334L897.625,732.347z M890.019,727.337l0.655-5.819l-1.017,0.628
		l-1.017,0.629v5.607C888.641,735.347,889.16,734.952,890.019,727.337z M862.214,511.953l-1.493-17.797l-3.533-12.409
		c-1.942-6.825-3.785-12.662-4.094-12.972l-0.563-0.562l-0.922,1.472c-0.508,0.809-2.799,7.281-5.091,14.382l-4.169,12.912
		l-0.479,6.688l-0.479,6.688l4.564,8.512c2.51,4.682,5.884,10.486,7.498,12.9c1.613,2.414,3.273,5.514,3.689,6.889
		c0.415,1.375,1.934,4.75,3.375,7.5l2.621,5l0.283-10.703l0.283-10.702L862.214,511.953z M684.767,510.041l2.838-6.13l1.503-6.378
		l1.503-6.377l-0.085-8l-0.085-8l-0.763-2.5l-0.762-2.5l-0.596,1.5c-0.328,0.825-2.194,9.395-4.148,19.043
		c-1.954,9.649-3.998,19.096-4.542,20.994c-0.544,1.897-0.989,4.295-0.989,5.328v1.88l1.645-1.365l1.644-1.364L684.767,510.041z
		 M712.32,304.406l7.733-6.25l3.294-4.328c0,0,2.809-2.952,3.293-4.328s0-4.738,0-4.738c0-2.606,0.479-7.329,1.063-10.494
		l1.063-5.755l-0.673-3.065l-0.674-3.065l-6.54-9.613l-6.539-9.613l-3.326-7l-3.326-7l-1.559-7.478l-1.559-7.478l1.036-4.832
		l1.036-4.833l-0.597-3.735l-0.598-3.734l1.066-10.59l1.065-10.59l2.108-5.634l2.107-5.634l7.354-5.438l7.354-5.439l2.573-4.39
		l2.573-4.39l1.063-5.751l1.063-5.751l-0.551-1.436l-0.552-1.436l-3.268,1.675c-1.797,0.921-3.493,1.979-3.768,2.351
		c-0.275,0.372-2.593,2.1-5.149,3.839l-4.648,3.163l-3.134,3.956c-5.182,6.543-10.191,14.137-11.687,17.715l-1.409,3.373
		l-1.524,14.75c-0.839,8.112-2.196,18.683-3.016,23.492l-1.492,8.742l1.614,6.258c0.889,3.441,3.104,10.308,4.924,15.258
		c1.82,4.95,4.121,12.6,5.114,17l1.805,8l0.051,15l0.052,15l-2.75,7.31l-2.75,7.31v2.94v2.94h1.473h1.473L712.32,304.406z
		 M845.502,287.495l-3.361-14.338l-0.073-33l-0.072-33l-0.776-7l-0.777-7l-2.41-7.407l-2.41-7.407l-5.076-9.557
		c-2.791-5.256-6.307-11.148-7.813-13.093s-5.709-8.036-9.341-13.536l-6.603-10l-6.136-6.276l-6.135-6.276l-4.024-2.54l-4.024-2.541
		l-5.637-0.917l-5.637-0.917l-6.482,1.036l-6.482,1.036l-5.744,3.489l-5.744,3.489l-2.894,3.709
		c-3.535,4.529-9.213,15.633-9.199,17.989c0.005,0.946,1.059,3.973,2.341,6.728l2.332,5.007l3.646,3.2l3.646,3.201l3.763,0.991
		c2.07,0.545,6.781,1.507,10.47,2.138l6.707,1.146l2.169,1.882c1.193,1.035,3.228,3.315,4.52,5.067l2.351,3.185l1.504,5.088
		c0.827,2.798,2.595,6.872,3.928,9.051l2.424,3.963l6.338,3.582l6.338,3.582l3.706,4.903l3.706,4.903l1.114,4.645l1.113,4.644
		l-0.586,22.908l-0.586,22.908l1.369,7.049l1.371,7.05l1.88,2.87l1.881,2.87l7.023,3.25c3.863,1.788,10.848,5.741,15.521,8.784
		l8.497,5.533l0.864-0.865l0.864-0.865L845.502,287.495z M803.999,256.406c-0.115-11.138-0.243-20.588-0.284-21
		c-0.1-1.003-2.249-0.926-3.934,0.142l-1.358,0.861l-0.319,9.874c-0.177,5.431-0.067,13.116,0.242,17.08l0.563,7.206l1.852,3.044
		c1.018,1.674,2.211,3.044,2.65,3.044h0.8L803.999,256.406z M712.058,198.671l0.802,6.821l-0.688,1.114
		c-0.379,0.613-1.07,2.444-1.536,4.068l-0.847,2.953l0.858,6.07l0.857,6.07l2.911,6.194c1.602,3.407,6.4,11.49,10.665,17.963
		l8.862,17.872l2.653,1.441l2.654,1.441l2.5,0.022c1.375,0.013,5.479-0.609,9.122-1.381l6.621-1.404l6.512-5.256l6.495-4.596
		l6.031-6.022l7.065-7.401l1.521-2.943c1.274-2.463,4.458-13.927,4.507-16.229l0.016-0.687l-3.242-0.313l-3.242-0.313l-0.328-1.735
		l-0.329-1.735l3.52-5.765c1.935-3.17,3.782-6.89,4.105-8.265l0.587-2.5l-4.604-4.786l-4.605-4.786l-2.994-6.714
		c-1.646-3.693-3.741-8.232-4.654-10.088l-1.66-3.374l-2.132-1.396l-2.132-1.397l-7.603-1.455l-7.602-1.454l-4.644-2.183
		l-4.644-2.183l-4.008-5.092c-2.204-2.8-4.401-5.24-4.883-5.42l-0.876-0.328l-8.927,7.128l-8.927,7.128l-1.579,3.948l-1.58,3.948
		l-0.645,5.486l-0.645,5.486l-0.403,2.998l0.468,2.808L712.058,198.671z M801.957,223.438l1.817-3.718l-0.905-1.618l-0.905-1.618
		l-2.662,3.163l-2.661,3.164v2.497v2.497l1.75-0.323l1.75-0.323L801.957,223.438z"/>
	<path fill="#144EC5" stroke="#000000" stroke-width="6" stroke-linejoin="round" d="M685.501,459.902
		c5.023,3.628,5.578,6.744,5.578,10.241s0.583,13.407,0,20.985s-6.69,29.135-11.99,34.392C665.5,539,654.21,565.18,652.461,579.169
		c0,0,35.517,23.729,101.538,22.664c82.667-1.333,106.961-26.764,106.961-26.764l1.166-18.653c0,0-16.733-41.971-17.899-47.217
		s0.582-16.321,2.914-20.985s5.806-29.163,5.806-29.163l9.798,28.053c0,0,3.117,16.476,3.563,32.952
		c0.236,8.742-1.53,23.751-2.303,35.917c-0.683,10.763-0.369,19.299-0.369,19.299s12.269-2.795,26.047-2.118
		c13.78,0.678,22.491,3.899,22.491,3.899c3.563-12.023,2.226-65.903,0-77.926s-10.133-54.771-10.133-54.771
		c-2.227-12.468-1.445-41.412-1.445-41.412c1.336-8.016-0.672-30.28-2.928-41.112c-2.337-11.219-8-27.333-12-32
		s-10.666-12-14.666-14.667s-29.86-16.155-29.86-16.155s-14.802,35.359-51.761,42.929c-3.158,17.133-32.396,86.723-32.396,86.723
		c-2.672-29.797-17.578-68.466-22.031-84.051c-25.628-3.997-30.998-24.755-34.13-33.108c0,0-23.84,7.752-39.322,19.493
		c-5.499,4.17-9.55,9.479-11.833,12.837c-5.667,8.333-8.118,16.472-8.666,26s1.321,22.643,1.945,30.642s-0.179,32.749,0.267,47.443
		s-4.453,27.608-7.125,36.069s-12.023,28.499-12.914,39.631c-0.451,5.634-1.016,22.102-1.464,36.995c0,0,8.304-1.92,16.164-0.937
		c8.186,1.024,18.468,3.082,18.468,3.082c2.072-8.5,17.151-32.461,17.151-32.461l3.335-17.366c0-3.117,4.68-26.272,6.461-32.507
		S685.501,459.902,685.501,459.902z"/>
	<path fill="#B3B3B3" stroke="#000000" stroke-width="4.9601" stroke-linejoin="round" d="M652.518,576.769l-11.852,56.064
		c0,0-7.001,50.666-3.667,68s14.001,72.667,13.667,90C654,818.5,666.999,860.167,668.999,867.5s5,34.667,5,34.667
		s-0.931,34.684-0.333,44.666c3.334,55.667,29,156,29,156s46.334,5.667,64.667-12c2.666-19.333,3-98.667,5-112
		s1.332-38-1.334-49.333s-12.666-38.667-9.333-46s5.667-32,3.667-42s-3.893-32.044-1.667-49.333
		c1.89-14.682,0.666-32.667,1.333-34.667s5-21.333,5-21.333l12.667,30c0,0,21.333,63.333,26,85.333s27.666,76.667,32.333,80.667
		s5.334,26,5.334,26s1.999,19.334,4.666,32s18.668,42,25.334,53.333s29.332,69.999,30.666,77.333s4.667,17.334,4.667,17.334
		s74.999,4,70.333-8.667s-7.999-29-12-46.667c-3.684-16.268-13-74.667-14.333-88s-17.901-51.716-21.234-56.383
		c5.968,8.349-5.399-37.967-4.766-31.617c-0.667-6.666-15.667-43.333-15.667-49.333s-3.333-89.333-3.333-89.333l-7.233-35.207
		l-10.767,19.207l-10,11.333l-10.667,7.333l-12-6.666l-0.666-6.667l6-16.667V725.5l-4-12l-8.667,18c0,0-11.999,16.667-11.333-10
		s4.666-22.667,4.666-22.667s0.668-9.334,1.334-20s13.332-20.666,12.666-27.333s4-80,4-80s-42,28.667-108.666,31.333
		C698.711,605.099,652.518,576.769,652.518,576.769z"/>
	<path fill="#784421" stroke="#000000" stroke-width="5" stroke-linecap="round" d="M861.5,586
		c-10.006,6.444-25.188,14.141-40.885,18.856C790.033,614.042,757.5,617.5,757.5,617.5l1-14c0,0,23.5-2,50-8.5
		c28.704-7.041,52.46-19.931,52.46-19.931L861.5,586z"/>
	<path fill="#784421" stroke="#000000" stroke-width="5" stroke-linecap="round" d="M650,588.5c29.5,19,94,28.5,94,28.5l0.5-15.5
		c0,0-21.857,1.526-50-7.5s-41.982-17.231-41.982-17.231L650,588.5z"/>
	<path fill="none" stroke="#000000" stroke-width="5" stroke-linecap="round" d="M854.309,435.347
		c-2.309,17.486-14.236,30.601-34.438,31.703"/>
	<path fill="none" stroke="#000000" stroke-width="5" stroke-linecap="round" d="M707.337,464.623
		c-18.67,3.544-30.794-16.424-30.794-16.424s-11.846-18.091-5.167-37.684c0,0,6.63-14.7,7.713-18.482s-2.35-14.376-2.35-14.376"/>
	<path fill="none" stroke="#000000" stroke-width="5" stroke-linecap="round" d="M645.945,624.467c0,0,25.5-1.5,31.499-22.499"/>
	<path fill="none" stroke="#000000" stroke-width="5" stroke-linecap="round" d="M842.937,596.468c0,0,9.063,13.032,18.844,14.688"
		/>
	
		<ellipse fill="#DCDDDE" stroke="#000000" stroke-width="4" stroke-linecap="round" stroke-linejoin="round" cx="752" cy="610.75" rx="15" ry="8.25"/>
	<polygon fill="#B3B3B3" stroke="#000000" stroke-width="4" stroke-linecap="round" stroke-linejoin="round" points="701.5,596 
		700,608.5 691.5,605.5 692.5,593.5 	"/>
	<polygon fill="#B3B3B3" stroke="#000000" stroke-width="4" stroke-linecap="round" stroke-linejoin="round" points="812,594 
		813.5,606.5 822,603.5 821,591.5 	"/>
	<path fill="none" stroke="#000000" stroke-width="5" stroke-linecap="round" stroke-linejoin="bevel" d="M852.837,462.168
		c0,0-0.78-12.914,1.445-26.272c3.677-22.071-4.46-40.967-4.46-40.967"/>
	<path fill="none" stroke="#000000" stroke-width="5" stroke-linecap="round" stroke-linejoin="bevel" d="M865,493.167
		c0,0,8,9.667,10.334,19.667"/>
	<path fill="none" stroke="#000000" stroke-width="4" stroke-linecap="round" stroke-linejoin="bevel" d="M666.333,486.5
		c0,0-3.333-9-2.333-19.667"/>
</g>
<g>
	<path id="path2416" sodipodi:nodetypes="ccccc" fill="#144EC5" stroke="#000000" stroke-width="6" d="M358.306,213.679
		c1.512-4.343,4.275-34.106,3.123-34.12c-26.959-9.754-73.396-9.489-98.541-0.54c0.816,9.776,0.199,23.078,3.179,34.501
		C284.206,207.821,345.673,209.729,358.306,213.679z"/>
	<path id="path2420" sodipodi:nodetypes="ccccc" fill="#FFFFFF" stroke="#000000" stroke-width="3" d="M322.236,274.734
		c13.563-8.456,37.428-44.694,34.447-61.17c-28.418-5.849-61.866-6.267-90.524-0.237c-0.121,20.021,15.854,48.266,31.32,60.04
		C305.416,279.029,314.208,281.623,322.236,274.734z"/>
	<path fill="#FFFFFF" d="M438.942,731.722l7.419-6.666l7.418-6.665l4.954-10.117c2.725-5.564,6.074-11.98,7.444-14.257l2.49-4.14
		l1.986-15.832l1.986-15.832v-9.097v-9.097l1.468-4.944c1.367-4.605,4.803-23.878,8.006-44.919
		c0.753-4.95,2.045-10.871,2.871-13.158s2.459-9.263,3.629-15.5c1.17-6.238,2.82-14.492,3.668-18.342
		c0.848-3.851,2.441-11.275,3.542-16.5l2.001-9.5l0.487-19l0.487-19l-2.542-12c-1.397-6.601-3.707-16.275-5.133-21.5l-2.592-9.5
		l-0.436-6.5c-0.24-3.575-0.434-14.601-0.432-24.5l0.005-18l-1.472-14.611l-1.472-14.611l-1.65-7.256l-1.65-7.256l-2.415-5.46
		l-2.414-5.46l0.979-7.807l0.979-7.807l-0.95-11.667c-1.187-14.551-1.328-15.099-6.722-26.066
		c-2.434-4.95-5.622-11.447-7.084-14.437l-2.658-5.437l-7.713-8.131l-7.713-8.131l-5.287-2.655l-5.287-2.655l-10.713-0.999
		l-10.714-0.999l-3.604-1.506l-3.604-1.506l-6.183-5.642c-3.4-3.103-8.657-7.275-11.682-9.273c-3.025-1.997-6.105-4.204-6.845-4.904
		c-0.74-0.7-2.765-2.004-4.5-2.897c-1.736-0.894-5.063-3.183-7.393-5.087l-4.237-3.462l-4.07-5.963l-4.07-5.963l0.41-11.677
		l0.411-11.677l1.003-4c0.552-2.2,1.713-5.35,2.58-7c0.868-1.65,2.36-5.25,3.317-8l1.74-5l4.716-4.5l4.716-4.5l1.11-3.399
		l1.111-3.399v-6.271v-6.271l3.453-6.83l3.453-6.83l1.056-4.771l1.056-4.771l-1.151-4.729c-1.409-5.786-2.925-8.975-10.234-21.535
		c-3.139-5.393-6.83-12.345-8.202-15.448c-1.373-3.104-3.629-7.129-5.015-8.945l-2.519-3.303l-2.698-1.378
		c-1.484-0.758-4.239-1.71-6.122-2.116l-3.423-0.738l-6.242-6.243l-6.242-6.242l-6.835-2.752l-6.834-2.752l-7.463,0.617
		l-7.463,0.617l-6.084,2.847l-6.085,2.848l-3.453,3.001c-1.899,1.65-4.436,3.517-5.637,4.147l-2.185,1.147l-5.315,0.041
		l-5.316,0.041l-4.5,2.209l-4.5,2.209l-4,7.489l-4,7.489l-4.5,2.344c-5.87,3.058-7.795,4.86-10.176,9.525l-1.963,3.847l0.225,7.153
		l0.225,7.153l-2.655,6.996l-2.655,6.996v4.595v4.595l2.883,5.909c1.586,3.25,3.157,7.41,3.492,9.244l0.609,3.334l1.862,2.666
		l1.862,2.666l0.65,4.919l0.65,4.919l2.391,4.081c1.315,2.245,2.925,6.106,3.579,8.581l1.188,4.5l3.359,3.5l3.36,3.5l3.057,8.318
		l3.058,8.318l-0.024,10.682l-0.023,10.682l-0.91,3.922l-0.91,3.923l-1.887,2.528l-1.887,2.527l-6.448,2.643l-6.448,2.643
		l-11.994,8.041c-6.597,4.422-13.698,8.998-15.78,10.167l-3.786,2.126l-6.701,0.984c-3.685,0.542-9.518,1.658-12.961,2.48
		l-6.841,1.839c-15.332,1.572-19.315,3.281-28.733,12.325c-5.536,5.315-15.266,18.945-15.266,21.384c0,0.502-1.787,4.557-3.97,9.012
		c-5.884,12.004-7.376,20.616-6.738,38.898c0.474,13.576,0.328,15.538-1.452,19.5c-5.6,12.467-8.866,39.661-8.697,72.405
		c0.111,21.586-1.023,30.461-5.516,43.153c-3.828,10.813-5.113,21.468-5.047,41.848c0.065,20.34,0.418,23.302,5.417,45.5
		c1.053,4.675,2.904,13.675,4.113,20s2.818,13.283,3.575,15.464c0.757,2.18,2.007,8.029,2.777,13
		c3.611,23.292,6.717,40.424,8.063,44.465c0.895,2.688,1.475,8.252,1.475,14.158c0,8.33,0.825,17.27,3.554,38.533
		c0.291,2.266,1.878,6.248,3.527,8.848s5.207,9.129,7.906,14.508c4.118,8.207,6.019,10.768,11.808,15.912l6.9,6.133l4.485,3.041
		c3.248,1.546,3.81,1.219,11.101,1.645l0.853-0.088l19.294-7.167l-15-52.497l28.499,3l4.5-10.5l-19.499-19.499l-9-23.998l-22.499-15
		l-3-67.497l4.5-32.999v-40.498l4.5-19.499l13.499-31.499l12,43.498l-9,35.998l-3,37.498l49.191,19.117l63.304,10.881l55.497-4.5
		l55.497-10.5l-11.999-82.496l9-40.498l10.5,6l6,19.499v25.499l1.5,32.999l6,25.499l-3,20.999v43.498l-20.999,19.499l-10.5,20.999
		l-20.999,17.999l7.5,17.999l28.499-19.499l-9,35.998l-10.5,26.999l17.999,7.499L438.942,731.722z"/>
	<path d="M273.273,620.656h-2.58h-2.58l-5.102-3.436l-5.102-3.436l-3.228-4.076l-3.228-4.075l-3.376-8.127
		c-1.857-4.47-4.104-10.652-4.994-13.739c-0.89-3.086-3.18-9.181-5.09-13.544l-3.472-7.932l-4.441-6.62l-4.441-6.619v-2.092v-2.091
		l1.5-0.575l1.5-0.576l1.25,0.509c0.688,0.28,3.168,3.146,5.512,6.37l4.262,5.861l3.377,7.412c1.858,4.077,5.208,13.1,7.445,20.051
		l4.067,12.637l2.424,3.841c2.738,4.337,7.622,9.422,13.014,13.55l3.648,2.792v1.524v1.525L273.273,620.656z M368.87,899.104
		c-1.218-0.853-2.771-2.54-3.451-3.75l-1.237-2.198l-0.548-9l-0.548-9l-3.933-6.359l-3.933-6.359l-0.409-6.431l-0.409-6.431
		l1.745-1.928l1.744-1.928l1.981,1.06l1.98,1.061l-0.544,2.716l-0.543,2.717l0.968,4.306l0.968,4.306l2.858,4.155l2.858,4.154
		l1.104,3.981l1.105,3.98l0.006,6.095l0.006,6.095l1.828,1.655l1.829,1.655h2.604h2.604l0.689,2.174l0.69,2.174l-1.814,1.326
		l-1.813,1.326h-3.086h-3.087L368.87,899.104z M395.717,899.249l-1.167-1.407l1.179-6.772l1.18-6.771l2.32-2.321l2.321-2.32h2.076
		h2.077l0.604,1.572l0.603,1.572l-1.984,2.684l-1.984,2.685l-0.71,4.731l-0.709,4.731l-1.512,1.513
		C398.131,901.022,397.208,901.045,395.717,899.249z M399.212,863.085l-1.571-1.571v-2.363c0-3.359,2.69-15.723,4.091-18.796
		l1.18-2.589l1.542-0.591l1.542-0.592l1.275,1.286l1.276,1.287l-1.928,8.5c-1.061,4.675-1.939,9.872-1.953,11.55l-0.025,3.05
		l-1.2,1.2C401.858,865.037,401.098,864.971,399.212,863.085z M243.197,861.434l-1.557-2.223v-2.096
		c0-1.153-0.679-4.383-1.509-7.177l-1.509-5.081l-3.991-5.977l-3.991-5.977v-1.502v-1.501l1.374-1.14l1.373-1.141l1.574,0.604
		c0.866,0.332,2.785,2.192,4.266,4.133l2.691,3.528l7.611,3.466c10.153,4.624,10.438,4.782,10.847,6.009l0.354,1.063l-1.719,1.719
		l-1.719,1.719l-3.076-0.509c-1.692-0.28-3.751-0.663-4.576-0.853l-1.5-0.344l0.361,6.872l0.361,6.872l-1.361,0.862
		C245.474,864.048,244.905,863.872,243.197,861.434z M339.641,610.656v-1.522v-1.522l3.875-4.228
		c8.95-9.762,19.184-28.121,24.096-43.228c1.252-3.851,3.858-10.05,5.791-13.777l3.515-6.777l2.987-2.515l2.987-2.514l1.125,0.37
		l1.124,0.369l0.335,2.29l0.335,2.289l-2.968,4.132c-3.335,4.645-5.031,8.365-9.403,20.633c-5.797,16.26-15.71,33.635-24.378,42.723
		l-4.078,4.277l-1.922,0.038l-1.921,0.039L339.641,610.656z M245.307,470.989c-0.366-0.366-0.667-1.451-0.667-2.41v-1.743l6.25-3.42
		l6.25-3.421l2.559-3.919c3.419-5.237,5.206-9.822,8.929-22.92c4.024-14.152,8.241-25.319,11.531-30.531l2.61-4.135l6.185-2.849
		l6.185-2.848l3.5-0.214c1.925-0.118,4.751-0.148,6.282-0.068l2.781,0.146l0.631,1.645l0.631,1.645l-1.854,1.355l-1.854,1.355
		h-2.683c-1.476,0-4.639,0.69-7.03,1.533l-4.347,1.534l-2.379,2.216l-2.378,2.217l-2.768,5.5l-2.768,5.5l-3.08,10
		c-1.694,5.5-3.768,12.507-4.608,15.571c-0.841,3.063-2.62,8.039-3.955,11.057l-2.426,5.485l-2.736,3.252l-2.737,3.252l-5.111,2.932
		l-5.112,2.933l-2.583,0.009C247.136,471.652,245.673,471.356,245.307,470.989z M355.86,470.098l-2.225-1.559l-3.98-5.86
		l-3.98-5.861l-5.049-11.831c-2.776-6.507-6.482-15.205-8.235-19.33s-4.245-9.4-5.538-11.722l-2.352-4.222l-6.391-6.55l-6.391-6.55
		l0.537-1.401c0.296-0.771,1.207-1.658,2.024-1.972l1.485-0.57l2.687,1.413c1.479,0.777,4.575,3.361,6.882,5.743l4.195,4.33
		l5.556,11c3.056,6.05,6.289,13.25,7.186,16c0.897,2.75,4.072,10.112,7.057,16.36l5.426,11.361l5.063,4.854l5.063,4.854
		l-0.589,1.535l-0.589,1.534h-2.809h-2.81L355.86,470.098z M436.67,1211.712c-0.572-1.069-1.488-2.221-2.035-2.56l-0.994-0.614
		v0.625c0,1.374,2.131,4.493,3.07,4.493h1L436.67,1211.712z M381.641,1165.346v-5.311l-2.486-6.344
		c-1.368-3.489-3.178-7.4-4.023-8.69l-1.537-2.345h-1.357h-1.358l-1.045,4.25c-0.574,2.337-1.353,6.377-1.729,8.978l-0.685,4.728
		l2.713,2.272c1.492,1.25,4.129,3.496,5.86,4.993c1.73,1.496,3.71,2.733,4.397,2.75l1.25,0.029V1165.346z M312.891,322.994
		l-1.25-0.504v-1.983v-1.983l2.618-3.433l2.619-3.433h1.774h1.773l0.607,1.582c0.334,0.87,0.607,2.465,0.607,3.545v1.964
		l-2.455,2.455l-2.454,2.455l-1.296-0.079C314.723,323.534,313.578,323.271,312.891,322.994z M313.842,302.399l-1.042-1.256
		l0.67-5.387l0.671-5.387l1.666-1.048l1.666-1.049l1.463,1.214l1.464,1.215l0.597,2.983l0.597,2.983l-1.206,2.745
		C318.511,303.681,315.896,304.875,313.842,302.399z M220.609,265.832l-2.404-1.947l1.34-1.615l1.34-1.614h1.934h1.934l2.828-3.096
		l2.827-3.096l1.866,0.356l1.866,0.356l0.313,2.186l0.313,2.186l-3.313,3.519l-3.313,3.519l-2.563,0.597l-2.563,0.597
		L220.609,265.832z M396.522,263.774l-3.882-3.882v-2.927v-2.927l1.315-1.8l1.316-1.8l1.934,0.367l1.935,0.367l0.313,3.243
		l0.313,3.243l2.531,1.749c1.393,0.962,3.419,2.566,4.504,3.566l1.972,1.817l-1.189,1.433l-1.189,1.433H403.4h-2.995
		L396.522,263.774z M304.338,251.875l-1.698-1.876v-2.588v-2.588l1.229-0.41l1.229-0.41l2.785,1.051l2.784,1.051l2.527-2.725
		l2.525-2.725h1.854h1.852l0.56,1.458l0.56,1.458l-3.202,4.792l-3.202,4.792l-4.052,0.298l-4.052,0.298L304.338,251.875z
		 M359.641,248.24c-3.025-0.73-10.739-2.116-17.142-3.08c-6.402-0.963-12.185-2.087-12.849-2.498l-1.207-0.746l0.356-1.88
		l0.357-1.88l3.991-0.344l3.992-0.344l7,1.147c3.85,0.631,9.475,1.683,12.5,2.337l5.5,1.19l13.984,0.007l13.984,0.007l0.328,1.692
		l0.327,1.692l-3.211,1.66l-3.211,1.661l-9.602,0.354l-9.601,0.354L359.641,248.24z M307.605,235.344
		c-3.962-1.857-8.871-5.643-9.964-7.685l-0.994-1.858l0.604-1.572l0.604-1.572h1.858h1.858l3.628,3.186l3.628,3.186l1.63-1.028
		c0.896-0.565,4.601-5.411,8.23-10.768c6.83-10.078,8.241-11.534,11.203-11.56l1.75-0.015l-0.058,2.25l-0.057,2.25l-8.693,13
		l-8.692,13l-2,0.188l-2,0.188L307.605,235.344z M441.089,721.426c0.854-1.218,1.539-2.902,1.524-3.742l-0.027-1.527l-3.473,3.735
		c-1.91,2.054-3.473,4.208-3.473,4.785v1.05l1.948-1.043C438.661,724.11,440.235,722.644,441.089,721.426z M432.242,605.406
		l1.68-5.25l0.786-29l0.786-29l-2-13l-2-13l-0.281-26.704l-0.283-26.704l-1.618-2.471l-1.619-2.471l-3.526-11.634
		c-1.939-6.398-3.532-12.395-3.541-13.325s-0.442-2.366-0.964-3.191l-0.948-1.5l-1.373,1.5l-1.372,1.5l-3.271,11.855l-3.271,11.856
		l0.489,6.644c0.27,3.654,1.25,10.02,2.179,14.145c2.149,9.549,5.556,35.109,5.464,41l-0.07,4.5l-1.266,3.5l-1.266,3.5l3.794,11
		l3.795,11l1.139,12.5c0.627,6.875,1.327,16.325,1.558,21c0.442,8.996,2.139,23.161,3.062,25.565
		c0.303,0.789,0.935,1.435,1.404,1.435h0.854L432.242,605.406z M309.141,199.077c2.75-0.381,6.101-1.104,7.445-1.606l2.445-0.914
		l6.159-5.407c3.388-2.974,9.979-9.151,14.648-13.727l8.49-8.32l2.155-5.761l2.156-5.761v-2.403v-2.404l-0.926-0.572l-0.925-0.571
		l-2.611,1.19l-2.612,1.19l-1.592-1.592l-1.592-1.592l2.33-3.336c1.282-1.834,3.554-4.91,5.048-6.835l2.717-3.5l1.581-5.432
		l1.582-5.432v-5.184v-5.184l-2.008-2.552c-1.104-1.403-5.347-5.065-9.429-8.138l-7.422-5.586l-2.062-5.507
		c-1.133-3.029-2.337-7.241-2.676-9.359s-1.005-4.477-1.48-5.24l-0.863-1.388l-2.28,1.452c-1.255,0.798-3.838,2.261-5.742,3.25
		l-3.461,1.798h-4.071h-4.07l-4.968-1.387c-2.732-0.763-6.433-1.988-8.224-2.721l-3.255-1.334l-7.745,7.571
		c-8.561,8.37-12.113,11.012-17.061,12.689l-3.316,1.124l-1.684,1.972l-1.684,1.973l-1.947,0.307l-1.946,0.307l-0.862-4.25
		l-0.862-4.25h-1.333h-1.333l-0.627,2.5l-0.627,2.5l0.657,2.75c0.361,1.512,1.105,3.318,1.652,4.012l0.995,1.262l1.198-0.994
		l1.198-0.995l2.093,1.951l2.093,1.95l0.709,5.672l0.708,5.672l-1.633,2.764l-1.633,2.764v2.125v2.126l2.487,5.909l2.487,5.91
		l0.877,7.811l0.877,7.811l2.545,6.5c1.4,3.575,2.845,7.524,3.211,8.776l0.667,2.277l2.435,1.596l2.436,1.595l1.632,3.439
		c0.897,1.892,3.48,5.469,5.739,7.95l4.107,4.511l5.5,1.848l5.5,1.848l1.5-0.363C303.465,199.934,306.391,199.458,309.141,199.077z
		 M371.642,127.652l1.176-2.837l-0.339-1.747l-0.338-1.746l-1.249-0.416l-1.249-0.416l-1.751,3.192
		c-0.963,1.755-2.98,5.055-4.483,7.333l-2.731,4.141l-0.019,1.81l-0.018,1.81l4.913-4.143l4.913-4.143L371.642,127.652z
		 M365.665,112.091l0.976-2.565v-7.37v-7.37l0.975-2.565l0.976-2.565h2.024h2.025l0.128,0.75c0.07,0.412,0.277,3.845,0.461,7.627
		c0.183,3.783,0.564,7.109,0.848,7.393l0.515,0.515l1.47-1.219l1.469-1.22l1.672-5.032l1.672-5.033l-0.468-4.866l-0.468-4.866
		l-2.707-4.091l-2.708-4.091l-2.876,0.631l-2.876,0.632l-1.449-2.315l-1.45-2.315l-0.521-7.505l-0.521-7.505l-2.449-5.495
		l-2.449-5.495l-2.782-2.75l-2.783-2.75h-2.256h-2.257l-0.607,1.582c-0.334,0.87-0.606,3.484-0.606,5.809v4.227l-1.316,1.8
		l-1.316,1.8l-1.934-0.385l-1.934-0.385l-0.038-7.473c-0.021-4.111-0.134-8.496-0.25-9.746l-0.212-2.272l-4.109-4.457l-4.108-4.457
		l-5.619-2.75l-5.619-2.75l-5.72,0.132l-5.72,0.131l-5.652,2.587l-5.652,2.588l-4.858,4.067l-4.858,4.067l-3.286,0.942l-3.286,0.942
		h-5.568h-5.568l-2.24,2.086l-2.239,2.086l-2.284,5.166l-2.285,5.165l-3.7,3.249l-3.699,3.249h-1.381h-1.38l-2.834,2.995
		l-2.835,2.995l-0.623,9.255l-0.624,9.255l-2.628,7.386l-2.628,7.386l1.009,3.747l1.009,3.747L244,105.54l1.346,1.117l0.622-7.353
		c0.342-4.044,0.894-8.063,1.227-8.931l0.605-1.578l2.669-0.968c1.469-0.532,3.401-1.265,4.294-1.628l1.624-0.661l3.376,3.096
		l3.376,3.095l2.143,0.545l2.142,0.544l3.189-1.649l3.189-1.649l9.168-9.354l9.168-9.354l4-1.073
		c5.029-1.349,8.624-1.368,12.056-0.063l2.686,1.021l-0.578,2.889l-0.577,2.888l1.539,0.59c0.846,0.325,2.556,0.591,3.8,0.591h2.261
		l6.907-4.931l6.907-4.931l3.306-4.069l3.307-4.069h1.976h1.975l0.583,1.52l0.583,1.52l-2.08,5.73
		c-1.144,3.152-2.359,7.36-2.701,9.353l-0.623,3.623l1.657,5.877c2.014,7.143,2.464,7.738,10.019,13.272
		c8.097,5.931,11.531,9.169,12.575,11.855l0.875,2.25h1.05h1.049L365.665,112.091z M245,1083.389l-0.356-2.987l-3.03-15.123
		c-1.666-8.317-3.699-18.048-4.518-21.622c-1.923-8.397-8.718-38.379-11.898-52.5c-1.363-6.05-3.195-14.881-4.072-19.624
		l8.406-8.623l-0.26-6.877l-0.26-6.876l-1.204-2.218l-1.203-2.217l-1.094-16.283l-1.095-16.282l0.631-12
		c0.347-6.601,1.103-15.62,1.679-20.044l1.047-8.045l-1.962-4.976c-3.642-9.241-20.41-37.574-21.689-48.936l-0.676-6l-3.77-12
		c-2.074-6.601-4.488-15.375-5.365-19.5l-1.595-7.5l-1.509-18c-0.313-3.727-0.673-8.474-1.034-13.531l-0.853,0.088
		c-7.291-0.426-7.853-0.099-11.101-1.645l-4.485-3.041l-6.9-6.133c-5.789-5.145-7.69-7.705-11.808-15.912
		c-2.699-5.379-6.257-11.908-7.906-14.508s-3.236-6.582-3.527-8.848c-2.729-21.264-3.554-30.203-3.554-38.533
		c0-5.906-0.58-11.471-1.475-14.158c-1.346-4.041-4.452-21.173-8.063-44.465c-0.77-4.971-2.02-10.82-2.777-13
		c-0.757-2.181-2.366-9.139-3.575-15.464s-3.061-15.325-4.113-20c-4.999-22.198-5.352-25.16-5.417-45.5
		c-0.066-20.38,1.219-31.034,5.047-41.848c4.493-12.691,5.627-21.566,5.516-43.153c-0.169-32.745,3.097-59.938,8.697-72.405
		c1.78-3.962,1.926-5.924,1.452-19.5c-0.638-18.283,0.854-26.894,6.738-38.898c2.184-4.455,3.97-8.51,3.97-9.012
		c0-2.438,9.73-16.068,15.266-21.384c9.418-9.044,13.402-10.753,28.733-12.325l6.841-1.839c3.443-0.823,9.276-1.939,12.961-2.48
		l6.701-0.984l3.786-2.126c2.083-1.17,9.184-5.745,15.78-10.167l11.994-8.041l6.448-2.643l6.448-2.643l1.887-2.527l1.887-2.528
		l0.91-3.923l0.91-3.922l0.023-10.682l0.024-10.682l-3.058-8.318l-3.057-8.318l-3.36-3.5l-3.359-3.5l-1.188-4.5
		c-0.654-2.475-2.264-6.336-3.579-8.581l-2.391-4.081l-0.65-4.919l-0.65-4.919l-1.862-2.666l-1.862-2.666l-0.609-3.334
		c-0.334-1.834-1.906-5.994-3.492-9.244l-2.883-5.909v-4.595v-4.595l2.655-6.996l2.655-6.996l-0.225-7.153l-0.225-7.153l1.963-3.847
		c2.38-4.665,4.306-6.467,10.176-9.525l4.5-2.344l4-7.489l4-7.489l4.5-2.209l4.5-2.209l5.316-0.041l5.315-0.041l2.185-1.147
		c1.201-0.63,3.738-2.497,5.637-4.147l3.453-3.001l6.085-2.848l6.084-2.847l7.463-0.617l7.463-0.617l6.834,2.752l6.835,2.752
		l6.242,6.242l6.242,6.243l3.423,0.738c1.883,0.406,4.638,1.358,6.122,2.116l2.698,1.378l2.519,3.303
		c1.386,1.816,3.642,5.841,5.015,8.945c1.372,3.103,5.063,10.055,8.202,15.448c7.31,12.561,8.825,15.75,10.234,21.535l1.151,4.729
		l-1.056,4.771l-1.056,4.771l-3.453,6.83l-3.453,6.83v6.271v6.271l-1.111,3.399l-1.11,3.399l-4.716,4.5l-4.716,4.5l-1.74,5
		c-0.957,2.75-2.449,6.35-3.317,8c-0.867,1.65-2.028,4.8-2.58,7l-1.003,4l-0.411,11.677l-0.41,11.677l4.07,5.963l4.07,5.963
		l4.237,3.462c2.33,1.904,5.656,4.193,7.393,5.087c1.735,0.893,3.76,2.197,4.5,2.897c0.739,0.7,3.819,2.907,6.845,4.904
		c3.024,1.998,8.281,6.17,11.682,9.273l6.183,5.642l3.604,1.506l3.604,1.506l10.714,0.999l10.713,0.999l5.287,2.655l5.287,2.655
		l7.713,8.131l7.713,8.131l2.658,5.437c1.462,2.99,4.65,9.487,7.084,14.437c5.394,10.967,5.535,11.515,6.722,26.066l0.95,11.667
		l-0.979,7.807l-0.979,7.807l2.414,5.46l2.415,5.46l1.65,7.256l1.65,7.256l1.472,14.611l1.472,14.611l-0.005,18
		c-0.002,9.899,0.191,20.925,0.432,24.5l0.436,6.5l2.592,9.5c1.426,5.225,3.735,14.899,5.133,21.5l2.542,12l-0.487,19l-0.487,19
		l-2.001,9.5c-1.101,5.225-2.694,12.649-3.542,16.5c-0.848,3.85-2.498,12.104-3.668,18.342c-1.17,6.237-2.803,13.213-3.629,15.5
		s-2.118,8.208-2.871,13.158c-3.203,21.041-6.639,40.313-8.006,44.919l-1.468,4.944v9.097v9.097l-1.986,15.832l-1.986,15.832
		l-2.49,4.14c-1.37,2.276-4.72,8.692-7.444,14.257l-4.954,10.117l-7.418,6.665l-7.419,6.666l-0.621,11.217l-0.62,11.218l-3.499,17
		c-4.023,19.547-5.687,25.516-8.164,29.296l-1.769,2.699l-0.344,24.002c-0.189,13.202-0.428,28.053-0.53,33.003l-0.187,9l3.238,8.5
		l3.238,8.5l2.427,10.5l2.427,10.5l1.1,11c0.604,6.05,1.73,15.841,2.502,21.757l1.403,10.757l-0.961,14.743
		c-0.528,8.108-1.398,16.993-1.934,19.743c-1.057,5.432-3.519,22.693-4.493,31.5c-1.035,9.35-5.714,33.846-9.742,51
		c-1.098,4.675-2.416,10.3-2.93,12.5l-0.934,4l-0.383,21.207l-0.384,21.206l1.796,2.294c2.498,3.189,7.809,14.05,14.08,28.793
		c2.924,6.875,6.353,14.076,7.618,16.004c1.267,1.927,3.419,6.252,4.783,9.61c1.365,3.358,3.37,7.632,4.457,9.496l1.975,3.39
		l0.631,3.5l0.631,3.5l-2.571,6.809l-2.57,6.809l-2.236,3.059c-1.23,1.683-4.17,5.031-6.533,7.441l-4.297,4.383l-3.203,0.004
		l-3.203,0.003l-3.274,1.997l-3.274,1.996l-5.226-0.044l-5.226-0.044l-3.816-1.361c-2.099-0.748-4.625-2.093-5.613-2.987
		l-1.797-1.626l-2.672-6.287l-2.672-6.286l-4.529-2.2l-4.529-2.201l-2.181-4.731l-2.181-4.731l0.246-10.181l0.246-10.181
		l-4.751-4.466c-2.613-2.456-6.773-5.995-9.245-7.865l-4.493-3.399l-1.241-2.454l-1.242-2.454l-0.002-4l-0.002-4l2.116-9.5
		l2.115-9.5l0.83-21.5c0.456-11.825,1.066-24.875,1.355-29l0.526-7.5l-1.445-4.5c-0.794-2.476-2.158-8.775-3.031-14
		c-0.872-5.226-2.442-12.875-3.488-17c-2.766-10.906-4.818-24.879-5.583-38l-0.669-11.5l-2.983-8.5
		c-1.641-4.675-4.495-14.575-6.343-22l-3.36-13.5l-1.033-9.211c-0.567-5.065-1.02-13.166-1.003-18l0.029-8.789l2.026-12.5
		c1.115-6.875,2.264-14.525,2.553-17l0.526-4.5l-3.424-7.5c-1.883-4.125-3.74-9.075-4.128-11
		c-2.272-11.292-3.832-21.929-5.114-34.871c-2.824-28.503-3.481-36.851-4.461-56.629l-0.99-20l-1.983-9.5l-1.982-9.5l-6.774-21.25
		l-6.774-21.25h-0.767h-0.766l-0.044,2.75c-0.082,5.161-1.935,22.738-2.979,28.25c-1,5.28-2.122,18.099-2.319,26.5
		c-0.052,2.2,0.51,13.269,1.249,24.598l1.343,20.598l-0.506,18.402l-0.506,18.402l-1.547,5c-0.851,2.75-2.078,8.375-2.726,12.5
		l-1.178,7.5l-4.987,15.052l5.013,15.053l2.093,12.323l2.094,12.322v7.856v7.856l-1.025,6.769c-0.564,3.723-2.139,13.625-3.5,22.005
		l-2.475,15.236l10,5.995c0,6.383-0.707,11.725-4.704,35.532l-2.518,15l0.67,15l0.67,15l1.471,11.5L245,1083.389z M294.198,1060.156
		c-0.853-7.15-2.005-20.875-2.561-30.5s-1.273-19.352-1.596-21.613l-0.585-4.113l3.115-2.912l3.116-2.911l1.019-7.976
		c0.561-4.386,1.286-11.265,1.612-15.286l-9.407-7.311l-2.245-1.572l-2.245-1.572l0.506-3.117c0.279-1.714,2.148-7.267,4.155-12.339
		l3.648-9.222l1.455-9.69l1.455-9.691v-6.344v-6.344l-1.47-9.743c-1.792-11.882-4.767-23.731-7.519-29.952l-2.055-4.646
		l-1.181,1.181l-1.181,1.181l-0.275,14.175l-0.275,14.174l-1.271,0.79l-1.272,0.789l-2-1.996l-2-1.997l0.01-13.72l0.011-13.721
		l13.223-9l3.222-9l2.066-9.5c1.136-5.226,2.518-11.525,3.071-14l1.004-4.5l-0.517-27.5l-0.517-27.5l-1.062-9.5l-1.061-9.5
		l0.602-8.5c0.331-4.675,1.467-13.542,2.525-19.703l1.923-11.203v-10.847v-10.848l17-0.563v3.488l1.637,5.588
		c0.9,3.073,3.611,11.606,6.025,18.963c7.377,22.483,9.806,36.44,10.809,62.125c0.311,7.975,1.482,24.85,2.603,37.5l2.037,23
		l2.449,14.5l2.449,14.5l8.426,17c13.283,26.797,14.726,30.278,19.812,47.791l1.101,3.79l-1.496,1.496l-1.496,1.496l-1.552-0.596
		l-1.553-0.596l-1.529-3.69c-0.842-2.03-2.533-7.066-3.759-11.191l-2.229-7.5l-4.377-8.75l-4.377-8.75h-0.944h-0.945l-0.528,3.25
		c-0.291,1.787-0.986,5.92-1.546,9.184l-1.016,5.934v12.186v12.186l1.479,8.381c0.814,4.609,2.553,12.674,3.862,17.922l2.382,9.541
		l3.705,7.959c2.037,4.377,4.367,9.184,5.178,10.681l1.474,2.723l-1.674,3.235l-1.673,3.235l0.663,9.542
		c0.574,8.27,1.782,17.59,3.183,24.543c0.222,1.1,0.822,2.646,1.335,3.436l0.933,1.436l1.528-1.269l1.528-1.268l1.922,0.609
		l1.922,0.61l0.615,3.723c0.338,2.047,0.609,10.922,0.603,19.723l-0.013,16l-1,12c-0.551,6.6-1.24,17.118-1.533,23.375
		l-0.531,11.375l1.058,4.932l1.058,4.934l3.972,5.848l3.971,5.848l2.571,6.83l2.571,6.831l0.206,13.014l0.206,13.015l-0.888,7.745
		l-0.888,7.746l1.732,4.535l1.731,4.535l4.767,2.415l4.766,2.416l1.489,3.304c0.819,1.816,2.056,4.751,2.747,6.521
		s1.908,3.756,2.702,4.416c1.748,1.45,7.758,2.74,11.764,2.524l2.923-0.157l0.41-1.25l0.41-1.25h-3.961h-3.961l-1.171-1.412
		l-1.172-1.412l1.67-5.106l1.671-5.107l-0.625-3.124l-0.625-3.124l1.126-1.357c0.619-0.746,1.545-1.356,2.056-1.356h0.93l0.979,2.81
		l0.979,2.811l4.939,3.688l4.939,3.688l0.825,3.185l0.825,3.184l1.203,0.401l1.203,0.401l0.582-1.517l0.582-1.516l-2.688-4.588
		c-1.479-2.523-4.44-6.708-6.581-9.299l-3.893-4.711v-2.269v-2.268h1.759h1.76l1.249,2c0.687,1.1,1.667,2,2.178,2h0.929l-0.509-3.25
		l-0.509-3.25l1.464-1.963l1.463-1.962l1.608,1.335l1.608,1.334v2.442v2.442l4.25,4.935c2.337,2.715,4.587,4.936,5,4.936l0.75,0.001
		v-2.639v-2.638l-4-4.34l-4-4.339v-1.9v-1.9l1.456-1.208l1.456-1.209l1.105,0.684c0.608,0.376,1.517,1.765,2.019,3.086l0.914,2.403
		h1.024h1.025v-1.441c0-0.792-0.415-1.697-0.923-2.011c-0.507-0.313-1.888-3.473-3.068-7.021l-2.146-6.451l-2.506-3.691
		l-2.505-3.692l-4.513-11.097c-2.481-6.103-6.508-14.964-8.947-19.692l-4.436-8.596l-2.456-2.308l-2.457-2.309l-3.761-0.61
		l-3.761-0.611l-0.333-1.727l-0.332-1.727l3.578-2.111l3.578-2.111l0.522-2.147c0.287-1.181,0.688-10.247,0.891-20.146l0.368-18
		l2.066-7.105c1.137-3.908,2.497-9.533,3.023-12.5s2.372-12.595,4.103-21.395c1.73-8.801,3.552-19.825,4.048-24.5
		s1.599-13,2.45-18.5c0.851-5.5,2.245-15.851,3.098-23l1.551-13l-0.484-6.5c-0.267-3.575-0.977-11.45-1.577-17.5
		c-0.602-6.05-1.321-13.476-1.6-16.5c-0.994-10.79-4.178-25.508-7.679-35.5l-2.103-6l-2.383-2.594l-2.383-2.594l1.552-15.406
		c0.854-8.474,1.896-18.435,2.317-22.135l0.766-6.729l-0.821-2.219l-0.82-2.219l-1.944,3.198c-2.069,3.402-2.663,3.68-4.872,2.281
		l-1.397-0.885l0.535-5.908l0.536-5.907l6.566-13.442l6.566-13.441l3.466-16.5c1.905-9.075,3.972-20.204,4.59-24.731l1.126-8.231
		l-1.001-1.871l-1.002-1.871l-7.407,0.475l-7.406,0.476l-3.574-1.18c-1.966-0.648-4.728-2.087-6.137-3.195l-2.563-2.016v-3.322
		v-3.322l4.021-7.855c2.211-4.32,5.534-11.68,7.383-16.354l3.362-8.5l1.646-9.798l1.646-9.798l-0.588-0.952
		c-0.999-1.616-2.183-1.097-7.001,3.074c-2.559,2.214-6.409,4.922-8.558,6.019l-3.906,1.992l-4.4,0.604l-4.4,0.603l-4.082-2.294
		l-4.082-2.295l-1.086-3.289l-1.086-3.289l1.688-3.555l1.687-3.556l5.447-3.232l5.446-3.233l3.725-5.555l3.726-5.556l3.297-8.735
		l3.298-8.736l5.598-6.047l5.597-6.045l-1.667-16.163c-0.916-8.89-1.935-20.663-2.263-26.163c-0.327-5.5-1.198-14.121-1.934-19.157
		l-1.337-9.157l-1.962-4.435l-1.962-4.436l-3.126-2.226l-3.126-2.227v-1.699v-1.7l2.609-3.84l2.609-3.841l0.513-3.817l0.512-3.817
		l-1.219-11.824c-1.255-12.184-2.697-20.675-5.574-32.824l-1.657-7l0.554-7l0.554-7l4.154-13l4.154-13l0.872-13
		c1.229-18.302,1.229-24.716,0.006-35c-0.589-4.95-1.081-9.45-1.095-10c-0.013-0.55-0.404-1.601-0.869-2.334l-0.846-1.334
		l-5.929,2.993l-5.929,2.993l-5.96,1.149l-5.96,1.148l-25.5-0.335l-25.5-0.336l-7.5-2.32l-7.5-2.321l-3.048-2.901l-3.048-2.9h-1.634
		h-1.635l-2.146,3.015l-2.147,3.015l-2.671,1.353c-3.577,1.812-16.622,4.62-22.19,4.777c-2.464,0.07-11.231,0.171-19.481,0.226
		l-15,0.099l-8.5-0.826l-8.5-0.826l-10-3.033l-10-3.033l-5.6-5.884c-1.756,2.183-2.477,10.042-2.477,10.042
		c-0.812,0.813-3.193,19.711-3.329,26.423c-0.028,1.375,0.296,9.25,0.722,17.5c0.593,11.511,1.315,16.628,3.104,22
		c3.835,11.513,7.479,26.639,7.457,30.954c-0.012,2.226-0.674,6.971-1.472,10.546c-3.701,16.584-5.652,30.346-5.823,41.067
		c-0.177,11.13-0.08,11.719,2.565,15.554c3.516,5.096,3.466,7.063-0.23,9.175c-6.002,3.431-8.929,15.418-10.917,44.704
		c-0.56,8.25-1.569,20.202-2.243,26.561l-3.398,9.808l6.835,6.05c4.541,4.186,7.675,9.616,11.172,19.354
		c2.857,7.957,8.863,15.865,14.891,19.611c6.006,3.732,7.717,6.111,7.854,10.918c0.107,3.777-2.365,6.904-7.016,8.871
		c-5.877,2.488-15.536-0.609-23.557-7.551c-7.595-6.572-8.279-5.752-6.163,7.4c1.648,10.242,5.8,22.201,11.102,31.979
		c7.146,13.18,6.87,17.854-1.276,21.521c-1.905,0.857-3.36,1.371-5.085,1.632l-0.518-0.036l-0.027,5.531l1.464,7.86l1.464,7.86
		v5.694v5.693l3.555,12.741c1.955,7.008,4.451,14.832,5.547,17.388l1.991,4.646l7.498,7.498l7.498,7.498l-0.294,2.06l-0.295,2.061
		l-2.61,0.303l-2.61,0.303l-3.034-2.553c-1.669-1.404-3.368-2.553-3.776-2.553h-0.742l0.647,4.75
		c0.356,2.612,2.033,10.324,3.726,17.137l13.078,12.387l5.491,12.113c3.02,6.662-4.063,13.616-3.518,15.454l0.992,3.341
		l-0.541,1.409l-0.541,1.409h-1.876h-1.876l8.156-2.038l-1.844-2.037l-0.814,1.456l-0.815,1.456l-0.631,11.831l-0.63,11.832l1.18,14
		c1.561,18.523-4.523,44.063-0.416,62.5c1.286,5.774,3.982,17.925,5.99,27c2.008,9.074,10.844,54.419,11.6,57.72L294.198,1060.156z
		 M189.733,291.912l3.593-0.438l1.861,3.841l1.861,3.841l0.173,10c0.095,5.5,0.514,13.15,0.93,17l0.757,7l3.788,8l3.788,8
		l3.766,3.94l3.766,3.941l8.273,2.78l8.272,2.78l13.722,1.143l13.722,1.143l14.067-0.562l14.067-0.562l6.875-1.525l6.875-1.525
		l4.819-5.026l4.819-5.026h1.997h1.998l0.618,1l0.617,1h1.907h1.906l2.927,2.861l2.928,2.861l7.926,2.139l7.925,2.139h22.734h22.734
		l6.901-1.57l6.901-1.569l2.539-1.998l2.539-1.998l3.577-7.128c1.968-3.92,5.09-11.652,6.938-17.183l3.362-10.055l1.156-7
		c0.637-3.85,1.338-7.963,1.56-9.14l0.403-2.14l1.479-0.567l1.479-0.568l1.645,1.645l1.646,1.645l-0.598,5.063
		c-0.75,6.358-3.982,18.952-7.183,27.983l-2.451,6.92v5.689c0,3.129,0.716,12.615,1.591,21.08l1.591,15.39l-0.582,11.016
		l-0.582,11.015l3.052,6.454l3.053,6.453l1.426,8.182c0.785,4.499,2.626,11.898,4.092,16.443l2.665,8.262l6.272,6.835l6.272,6.835
		l2.624,5.363l2.624,5.362l-0.299,6.88l-0.299,6.88l-1.856,0.354l-1.856,0.354l-0.896-0.896l-0.896-0.896l-0.922-7.345l-0.922-7.344
		l-2.108-2.104l-2.108-2.103l-1.028,1.5l-1.028,1.5l0.498,22l0.497,22l1.731,9.5l1.731,9.5l0.074,5.5
		c0.04,3.024-0.357,16.75-0.884,30.5c-0.527,13.75-0.974,27.889-0.992,31.419l-0.033,6.419l-7.5,6.26
		c-4.125,3.442-9.331,7.979-11.569,10.081l-4.068,3.821l-4.391,11l-4.391,11l-5.628,5.5c-3.095,3.024-7.051,6.547-8.79,7.826
		c-3.591,2.64-3.804,3.391-1.592,5.603l1.571,1.571h2.194h2.193l4.191-2.25l4.19-2.25l6.809-6.103
		c7.255-6.504,11.933-9.397,15.19-9.397h2.011l2.039,2.188l2.039,2.188v2.345v2.346l-3.419,2.017l-3.418,2.017l-1.185,7.2
		c-2.702,16.422-6.097,27.066-12.983,40.708l-2.995,5.934v2.029v2.028h1.5h1.5l1.906-1.906c1.048-1.049,4.116-5.211,6.817-9.25
		l4.911-7.344l2.187-5.5c1.203-3.025,3.092-8.783,4.198-12.796l2.012-7.295l2.497-3.955l2.496-3.954h1.52h1.519l0.538,1.403
		l0.538,1.402l-2.037,3.995c-1.121,2.197-2.903,7.078-3.961,10.847c-2.742,9.773-5.633,16.647-10.319,24.536
		c-2.249,3.785-3.873,7.098-3.61,7.361c0.264,0.264,2.593-1.381,5.176-3.654l4.696-4.135l1.813-3.628
		c0.996-1.995,2.745-7.229,3.886-11.628c1.141-4.4,2.945-10.031,4.01-12.515l1.936-4.514l1.718-1.426l1.718-1.426l1.905,1.189
		c1.048,0.655,2.784,1.19,3.859,1.19h1.955l0.604,0.979l0.604,0.979l-2.962,6.771c-1.629,3.725-3.275,8.459-3.657,10.521
		l-0.694,3.75h0.591c0.325,0,1.537-1.856,2.694-4.124c1.157-2.269,3.353-5.847,4.877-7.952l2.773-3.828l1.072-4.298
		c0.59-2.364,1.667-9.023,2.394-14.798l1.321-10.5l-0.051-11.5c-0.027-6.325-0.253-14.039-0.5-17.142l-0.449-5.642l1.931-2.138
		l1.932-2.138l1.209-7.221c0.665-3.972,2.342-13.971,3.727-22.221s2.963-16.146,3.507-17.545c1.133-2.912,4.985-20.776,6.246-28.955
		c0.466-3.025,1.976-10.188,3.356-15.916l2.509-10.415l1.038-11.085c0.571-6.096,1.04-14.484,1.042-18.642l0.004-7.557
		l-1.958-10.443c-1.077-5.743-3.615-16.742-5.641-24.442l-3.682-14l-0.215-25.5c-0.117-14.025-0.53-28.65-0.916-32.5
		c-1.247-12.423-2.77-21.953-3.824-23.93l-1.028-1.93l-1.368,1.871l-1.368,1.872v3.186v3.187l-1.5,1.245l-1.5,1.245l-1.618-1.342
		l-1.617-1.342l0.553-7.03c0.305-3.866,1.253-10.63,2.108-15.03l1.555-8l0.654-11.104l0.655-11.103l-1.282-8.239l-1.281-8.239
		l-4.009-7.658l-4.008-7.657l-6.231-8.021c-3.427-4.412-8.017-9.635-10.2-11.608c-4.36-3.939-14.757-11.153-17.547-12.174
		l-1.769-0.648l-12.484,0.953l-12.484,0.953l-2.497-1.138l-2.497-1.138v-1.717V239.9l2.25-1.53l2.25-1.531l-6-5.87l-6-5.871
		l-8.58-5.251c-4.718-2.888-11.222-7.486-14.452-10.218l-5.874-4.967l-0.899,0.899l-0.898,0.899l0.977,4.58l0.977,4.58l-1.458,1.21
		l-1.459,1.21l-1.621-1.022l-1.622-1.023l-1.275-4.919l-1.275-4.919l-0.02-13.25l-0.019-13.25h-1.917
		c-1.055,0-2.066,0.337-2.25,0.75c-0.184,0.412-5.576,5.592-11.984,11.509l-11.651,10.76l-3.349,1.374l-3.349,1.374l-8.5,0.682
		l-8.5,0.682l-4.781-1.076l-4.781-1.076l-3.219-2.14l-3.219-2.14l-3.846-4.952l-3.847-4.952l-0.782,0.854
		c-0.43,0.469-1.294,4.413-1.921,8.764l-1.14,7.911l-2.053,3.321l-2.053,3.321l-2.936,2.091c-1.615,1.15-5.604,3.174-8.863,4.499
		l-5.927,2.408l-8.316,5.66c-4.574,3.113-8.912,6.507-9.64,7.543l-1.323,1.883l4.757,2.104l4.757,2.104l8.566-0.631
		c4.711-0.347,11.041-1.047,14.066-1.555l5.5-0.924l8.627-0.073l8.628-0.073l1.245,1.5l1.245,1.5l-1.12,1.35l-1.12,1.349
		l-10.973,0.667l-10.972,0.667l-7.768,1.606l-7.768,1.606l-6.012-0.604l-6.012-0.604l-6.5-2.15l-6.5-2.149l-7.437,0.069
		l-7.437,0.069l-7.063,1.704l-7.063,1.704l-11.915,3.212c-19.111,11.565-36.103,33.611-39.866,51.724
		c-1.895,9.121-1.29,28.961,1.27,41.63c0.889,4.4,1.846,11.297,2.126,15.328l0.51,7.327l-2.863-0.327
		c-2.544-0.291-2.926-0.803-3.433-4.597c-0.7-5.244-2.324-7.247-3.72-4.587c-2.754,5.245-4.442,25.417-4.717,56.357l-0.226,25.5
		l-3.755,14c-3.66,13.646-4.312,16.573-6.462,29c-2.582,14.919-0.474,38.204,5.884,65c0.522,2.2,1.453,6.925,2.07,10.5
		c0.616,3.575,2.603,12.8,4.415,20.5c3.107,13.205,5.624,26.698,7.741,41.5c0.543,3.802,1.817,7.728,3.069,9.459
		c2.318,3.205,2.355,3.791,1.235,19.812c-0.561,8.021-0.314,14.277,0.966,24.5c2.175,17.383,3.197,21.414,6.631,26.154
		c1.525,2.104,3.782,5.795,5.014,8.201c1.233,2.406,2.423,3.842,2.646,3.189c0.537-1.574-3.512-15.068-4.75-15.834
		c-0.533-0.33-0.97-1.922-0.97-3.541c0-2.402,0.421-2.939,2.3-2.939c1.265,0,2.81-0.51,3.433-1.133s1.865-0.854,2.759-0.51
		c2.051,0.787,7.175,11.979,8.65,18.895c1.708,8.01,5.166,14.873,9.468,18.793c7.821,7.129,8.184,6.357,1.926-4.092
		c-2.456-4.1-5.883-11.953-7.615-17.453c-1.733-5.5-4.269-12.633-5.636-15.85c-1.539-3.621-2.13-6.205-1.552-6.783
		c2.709-2.709,7.606,4.227,10.232,14.494c3.422,13.379,9.938,25.832,17.995,34.389c2.624,2.785,5.041,2.906,5.041,0.252
		c0-1.098-1.533-5.262-3.407-9.25c-7.175-15.275-10.511-25.572-12.069-37.252c-1.104-8.277-1.579-9.336-5.122-11.426
		c-4.151-2.449-4.481-5.713-0.915-9.063c2.287-2.148,2.807-2.24,6.468-1.145c2.372,0.711,7.53,4.227,12.763,8.697
		c4.831,4.127,9.333,7.945,10.007,8.484c0.674,0.541,3.166,1.248,5.539,1.572c3.228,0.443,4.64,0.199,5.608-0.967
		c1.836-2.213,0.507-5.408-3.002-7.223c-8.181-4.23-13.149-11.152-19.328-26.932c-2.87-7.33-6.714-12.191-12.462-15.754
		c-1.881-1.167-5.861-4.393-8.843-7.168c-4.837-4.502-5.367-5.39-4.907-8.226c0.284-1.748-0.092-17.713-0.835-35.478
		c-0.743-17.766-1.173-32.587-0.957-32.938c0.217-0.351,1.31-6.525,2.428-13.721c2.324-14.947,2.97-51.521,0.933-52.779
		c-2.394-1.479-5.038,3.172-5.955,10.479c-1.045,8.324-1.378,9.083-3.984,9.083c-2.56,0-3.389-3.627-2.586-11.309
		c0.776-7.428,4.788-14.557,12.094-21.492c4.224-4.01,5.471-6.086,7.772-12.934c1.507-4.486,3.444-12.235,4.304-17.219
		c0.939-5.443,2.783-11.52,4.618-15.217c2.98-6.007,3.039-6.398,2.408-16.243c-0.445-6.955-0.048-16.186,1.278-29.724
		c2.017-20.584-1.388-21.37-1.696-33.142l-0.686-34.159L189.733,291.912z M177.039,730.084c0-1.289-4.979-7.076-6.089-7.076
		c-1.589,0-0.992,1.748,1.678,4.922C175.187,730.971,177.039,731.875,177.039,730.084z M184.428,614.435
		c0.906-2.361,3.654-25.55,3.129-26.4c-0.454-0.733,0.573-12.002,2.529-27.753c0.562-4.523,2.55-12.447,4.418-17.608
		c3.21-8.867,3.321-9.599,2.01-13.275c-0.763-2.141-1.404-5.691-1.425-7.892c-0.053-5.569,3.459-31.454,5.496-40.5
		c3.144-13.963,3.041-19.442-0.614-32.645c-1.805-6.521-3.708-12.418-4.229-13.105c-1.5-1.98-2.614-1.472-3.286,1.5
		c-1.957,8.657-6.805,24.307-8.599,27.75c-1.931,3.707-2.106,5.937-2.395,30.5c-0.236,20.048-0.788,29.59-2.269,39.191
		c-1.693,10.978-1.896,16.312-1.495,39.5c0.438,25.429,1.138,33.249,3.538,39.559C182.412,616.349,183.534,616.764,184.428,614.435z
		"/>
	<path id="path2492" sodipodi:nodetypes="ccccccccccccc" fill="#144EC5" stroke="#000000" stroke-width="6" d="M411.103,480.1
		c-6-20.999,15-58.497,4.5-113.994c-4.5-38.998,23.475-82.255,35.998-115.495c-0.504-0.186-14.824-13.83-35.998-22.499l-35.998-12
		c-16.128-8.379-35.316,65.784-64.926,65.754c-29.61-0.03-56.344-70.196-73.302-60.529c-2.503,0.483-56.762,14.274-70.262,27.773
		c16.709,16.63,32.999,44.998,25.499,91.495c0,0-1.5,89.996,12,127.494c-13.499,35.998-13.499,77.996-13.499,77.996
		s50.997,26.999,110.994,26.999s115.494-16.499,115.494-16.499S417.103,501.099,411.103,480.1z"/>
	<g id="placket" inkscape:label="#g3275">
		<rect id="rect3266" x="299.436" y="353.001" fill="#144EC5" stroke="#000000" stroke-width="3" width="25.116" height="12.427"/>
		<path id="path2438" sodipodi:nodetypes="ccccccc" fill="#144EC5" stroke="#000000" stroke-width="5" d="M324.455,285.578
			l-7.508-4.979c-4.641-3.153-5.365-3.149-10.84,0.059l-7.094,5.705l0.444,67.478l25.22,0.222L324.455,285.578z"/>
		<g id="buttons" inkscape:label="#g3270">
			<path id="path2436" fill="#144EC5" stroke="#000000" stroke-width="6" d="M307.901,344.505c-1.621-1.135-2.219-2.556-2.208-5.25
				c0.019-4.255,0.64-5.449,3.67-7.043c3.271-1.722,5.146-1.411,7.861,1.305C323.828,340.121,315.558,349.868,307.901,344.505z"/>
			<path id="path2432" fill="#144EC5" stroke="#000000" stroke-width="6" d="M307.334,321.233
				c-3.651-4.034-1.245-11.664,3.845-12.193c3.424-0.356,4.436-0.042,6.5,2.022c4.473,4.474,1.121,12-5.345,12
				C310.363,323.062,308.309,322.311,307.334,321.233z"/>
			<path id="path2428" fill="#144EC5" stroke="#000000" stroke-width="6" d="M309.179,300.867c-2.809-1.592-3.468-2.832-3.485-6.555
				c-0.019-4.022,3.004-7.261,6.735-7.218c3.891,0.045,6.249,2.189,6.915,6.288c0.471,2.904,0.115,3.991-2,6.106
				C314.562,302.27,312.319,302.648,309.179,300.867z"/>
		</g>
		<path id="path3268" sodipodi:nodetypes="cc" fill="none" stroke="#000000" stroke-width="3" d="M299.436,359.887h25.103"/>
	</g>
	<g id="g3304">
		<path id="path2422" sodipodi:nodetypes="cccccc" fill="#144EC5" stroke="#000000" stroke-width="5" stroke-linejoin="round" d="
			M367.271,186.653l-4.615-5.664c-5.742,64.7-24.486,79.285-46.344,98.829l16.795,3.792c7.496,4.53,11.686,13.112,12.57,13.134
			C403.604,262.611,390.104,219.113,367.271,186.653z"/>
		<path id="path2424" sodipodi:nodetypes="cccsccc" fill="#144EC5" stroke="#000000" stroke-width="5" stroke-linejoin="round" d="
			M291.109,285.11c6.969-4.125,15.505-5.051,15.515-5.326c-33.683-20.44-41.393-60.49-43.977-95.853c0-2.654-0.35-4.825-0.777-4.825
			c-1.725,0-11.297,20.703-14.259,25.008c-20.215,31.377-6.35,78.418,31.916,91.802C280.438,295.751,284.141,289.235,291.109,285.11
			z"/>
	</g>
	<g>
		<path id="path2484" sodipodi:nodetypes="ccscccc" fill="#144EC5" stroke="#000000" stroke-width="6" d="M201.114,358.606
			c5.494-21.676,1.5-85.496-29.999-109.494c-44.998,22.499-52.233,133.479-51.872,134.569c0.152,0.458,20.833,9.135,45.958,19.282
			l33.923,14.082l-2.511-25.441C198.114,372.105,200.931,361.053,201.114,358.606z"/>
		<polygon id="rect3459" fill="#144EC5" stroke="#000000" stroke-width="5" points="118.971,384.03 199.125,417.045 
			196.114,428.603 116.96,395.587 		"/>
	</g>
	<g>
		<path id="path2484_1_" sodipodi:nodetypes="ccscccc" fill="#144EC5" stroke="#000000" stroke-width="6" d="M420.013,402.104
			l-1.511,25.441l34.923-14.082c25.125-10.147,44.806-18.824,44.958-19.282c0.361-1.09-6.284-107.57-45.282-141.069
			c-29.499,30.999-41.082,94.317-35.588,115.994C417.696,371.552,418.513,382.604,420.013,402.104z"/>
		<polygon id="rect3459_1_" fill="#144EC5" stroke="#000000" stroke-width="5" points="498.667,406.086 420.513,439.102 
			417.502,427.544 498.656,394.529 		"/>
	</g>
	<g id="g5418">
		
			<path id="path2172" inkscape:connector-curvature="0" sodipodi:nodetypes="cccccccc" fill="#28170B" stroke="#000000" stroke-width="4.1395" d="
			M157.893,1188.979c-3.894,7.15,1.026,16.817,18.759,16.425c25.12-3.563,58.2-5.494,70.504-23.293
			c3.667-5.019,11.719-9.418,17.373-9.105c3.604,0.071,7.337,1.884,9.999,7.241c12.742-2.596,33.899-7.988,38.207-15.266
			l0.656-12.231L157.893,1188.979z"/>
		
			<path id="path2170" inkscape:connector-curvature="0" sodipodi:nodetypes="cccccccc" fill="#784421" stroke="#000000" stroke-width="4.1395" d="
			M204.712,1153.895c-7.787,19.174-35.908,19.724-46.025,34.712c-0.543,6.908,0.706,14.374,17.8,15.234
			c28.086-3.482,57.649-7.119,70.264-24.152c8.417-7.618,15.762-7.524,23.755-8.723c17.999-2.345,42.637-12.979,43.352-19.866
			c1.482-4.263,1.128-9.939-3.35-16.83L204.712,1153.895z"/>
		
			<path id="path2176" inkscape:connector-curvature="0" sodipodi:nodetypes="ccccccc" fill="#784421" stroke="#000000" stroke-width="3.75" d="
			M426,1133.5l-56-6c0,0-11.384,26.147-6,34s11.098,13.063,11.098,13.063c5.902,7.938,10.429,22.944,9,32.999
			c0.465,11.171,7.561,26.909,24.809,29.692c16.716,6.02,42.54-3.671,48.321-23.578c3.939-11.622,1.35-26.101-7.817-35.224
			c-5.099-5.199-15.963-18.919-15.816-24.889L426,1133.5z"/>
		
			<path id="path2178" inkscape:connector-curvature="0" sodipodi:nodetypes="ccc" fill="none" stroke="#000000" stroke-width="3.75" d="
			M416.9,1173.694l2.966,6.23c4.531,2.535,10.172,0.975,15.28,1.374"/>
		
			<path id="path2180" inkscape:connector-curvature="0" sodipodi:nodetypes="ccc" fill="none" stroke="#000000" stroke-width="3.75" d="
			M402.458,1195.317c2.96-3.946,8.996-8.086,8.628-11.823l-2.502-6.194"/>
		<path id="path2182_2_" inkscape:connector-curvature="0" fill="none" stroke="#000000" stroke-width="3.75" d="M418.888,1168.544
			l-11.677,5.987l13.212-0.18l-12.271,4.803l10.975-9.551l0,0l-12.759,3.071l11.205-7.918l-13.026,1.961l11.765-7.563l-13.306,1.541
			l10.785-6.724l-12.045,0.28"/>
		
			<path id="path3151_2_" inkscape:connector-curvature="0" sodipodi:nodetypes="cccccccccccccccccc" fill="#B3B3B3" stroke="#000000" stroke-width="4.9601" d="
			M196.739,741.625l0.518,0.036c1.725-0.261,3.18-0.774,5.085-1.632c8.146-3.668,8.423-8.342,1.276-21.521
			c-5.302-9.777-9.454-21.736-11.102-31.979c-2.116-13.152-1.432-13.973,6.163-7.4c8.021,6.941,17.679,10.039,23.557,7.551
			c4.651-1.967,7.124-5.094,7.016-8.871c-0.137-4.807-1.848-7.186-7.854-10.918c-6.028-3.746-12.034-11.654-14.891-19.611
			c-3.497-9.738-6.632-15.168-11.172-19.354l-6.835-6.05l-1.764-2.39c1.615-18.696,3.679-35.639,6.264-49.985l77.054,16.513l0,0
			l38.165,1.242c-0.028,0.254-1.724,79.313-1.219,79.245l3.682,34.554c1.389,2.271,1.974,4.799,1.653,5.399
			c-15.836,38.525-1.595,154.941-29.693,200.096c4.944-8.088,9.529-21.563,14.157-32.998c6.883,9.018,5.777,28.884,1.537,41.966
			c2.64,16.898-7.015,28.681-10.794,42.821c4.23-13.024,11.557-24.096,11.485-38.747c8.709,64.104,1.279,136.043,16.521,203.587
			c-8.039,3.128-24.981,9.611-40.109,12.039c-19.062,3.718-25.011,6.696-44.236,8.687c-11.66,2.284-21.083,4.849-23.414-3.584
			c-10.053-70.436-9.521-132.06-21.752-212.78c-3.29-16.429-4.232-33.217-1.515-45.904c-1.839-41.043-2.981-92.357-2.663-141.146
			L196.739,741.625z"/>
		
			<path id="path3153" inkscape:connector-curvature="0" sodipodi:nodetypes="cscccc" fill="none" stroke="#000000" stroke-width="5" d="
			M279.268,1134.655c-12.344-58.853-13.089-121.37-19.716-178.935C256.99,946.593,255,912.5,256,880.5c2-77,8.55-235.431,23-301
			l21,1"/>
		
			<path id="path2171" inkscape:connector-curvature="0" sodipodi:nodetypes="cccccccc" fill="#B3B3B3" stroke="#000000" stroke-width="5" d="
			M411,1134.5c-28,4-37-2-49.818-10.61C355.453,1083.481,348,1008.5,346,970.5c-15-58,0.033-73.276-14-117
			c-10.78-44.368,2-110-22-144c0,0-5.566-74.145-3.892-113.405L363,590.5C404.951,762.01,393.722,963.397,411,1134.5z"/>
		<g id="g3431" transform="matrix(1,0,0,0.8258687,235.122,51.828709)">
			
				<path id="path2169_2_" inkscape:connector-curvature="0" sodipodi:nodetypes="ccccccccccccccc" fill="#B3B3B3" stroke="#000000" stroke-width="4.9601" d="
				M208.56,815.705c-0.319,18.639-1.05,37.894,0.318,60.549c3.113,38.628,2.058,75.696-2.057,115.998
				c-0.243,5.967-8.06,26.056-11.679,31.098c3.407-4.898,11.122-24.449,11.25-28.296c1.082,20.341,1.176,35.509,0.51,49.451
				c-0.583,5.737-6.299,16.666-7.348,17.207c2.13-3.277,7.061-11.86,7.324-17.149c-0.692,15.261,3.796,34.741,4.398,68.831
				c0.602,34.091-5.084,190.384-5.084,190.384c-6.321,4.535-14.909,7.149-30.314,7.171v-3.633
				c-18.92-203.655-25.823-530.722-48-655.068l56.952-11.883v1.211c5.807,11.755,8.785,27.611,10.548,41.548
				c0,0-18.368,12.506-21,32.693c-2.741,21.023-16.126,21.035-21.683,30.243c-1.66,2.75-2.925,7.791,6.142,12.749
				c5.99,3.275,17.549-4.958,29.833-18.77c1.697,7.602-1.836,26.627-7.313,46.394c-6.167,22.26-9.359,26.562-9.067,31.166
				c0.292,4.605,21.644,3.187,21.644,3.187L208.56,815.705z"/>
			
				<path id="path3207" inkscape:connector-curvature="0" sodipodi:nodetypes="ccccccc" fill="#B3B3B3" stroke="#000000" stroke-width="4.1264" d="
				M187.39,1333.164c-18.785,0.65-28.512-0.421-47.355-6.624l-15.048-10.068l-0.709-18.257
				c25.601,13.944,55.601,18.787,84.126,5.501l-0.081,17.517C202.944,1326.334,196.082,1331.376,187.39,1333.164z"/>
			
				<path id="path3209" inkscape:connector-curvature="0" sodipodi:nodetypes="cccccc" fill="#B3B3B3" stroke="#000000" stroke-width="4.555" d="
				M83.996,1310.781c-5.425,6.343-12.074,7.251-21.449,10.41c-25.248,7.859-44.542,13.233-72.669,15.79
				c-17.268,1.057-25.5-3.027-22-21.795c23.526,4.566,63.506-7.72,114.5-23.611l1.618,14.363V1310.781z"/>
		</g>
		
			<path id="path2174" inkscape:connector-curvature="0" sodipodi:nodetypes="ccc" fill="#784421" fill-opacity="0.75" stroke="#000000" stroke-width="4.1395" d="
			M221.604,1157.02c-1.765,1.437-3.607,2.122-5.224,4.983c0.191,2.844,7.914,6.094,14.193,8.896"/>
		<g id="g3815" transform="matrix(1,0,0,0.8258687,235.122,51.828709)">
			
				<path id="path3149" inkscape:connector-curvature="0" sodipodi:nodetypes="ccccc" fill="#B3B3B3" stroke="#000000" stroke-width="4.1264" d="
				M91.264,658.521c3.08,54.529,7.193,55.838,3.643,102.237c-0.802,20.057-9.67,29.803-20.839,35.779l-5.532-136.816L91.264,658.521
				z"/>
		</g>
		<path fill="#B3B3B3" stroke="#000000" stroke-width="4.1264" d="M395.458,587.468c0,0,13.086,28.566,35.042,28.532
			c0,0-2.252-38.276-8.897-36.404S395.458,587.468,395.458,587.468z"/>
		<path fill="#B3B3B3" stroke="#000000" stroke-width="4.1264" d="M221.467,581.468c0,0-9.465,40.036-34.731,38.017l7.378-50.389
			L221.467,581.468z"/>
	</g>
	
		<path id="path2492_2_" sodipodi:nodetypes="ccccccccccccc" fill="#784421" stroke="#000000" stroke-width="6" stroke-linecap="round" stroke-linejoin="round" d="
		M194.114,569.097c0,0,51.997,26.999,111.994,26.999s115.494-16.499,115.494-16.499v-24c0,0-55.497,16.499-115.494,16.499
		s-110.994-26.999-110.994-26.999L194.114,569.097z"/>
	<polygon fill="#B3B3B3" stroke="#000000" stroke-width="6" stroke-linecap="round" stroke-linejoin="round" points="
		229.903,557.399 230.164,582.954 242.681,587.647 242.724,562.093 	"/>
	<polygon fill="#B3B3B3" stroke="#000000" stroke-width="6" stroke-linecap="round" stroke-linejoin="round" points="
		390.055,561.224 389.794,586.779 377.277,589.473 377.234,563.918 	"/>
	<g>
		<path fill="#DCDDDE" d="M289.775,595.498c-0.797,0-1.562-0.317-2.125-0.882c-0.566-0.569-0.882-1.34-0.875-2.143l0.149-17.881
			c0.014-1.648,1.354-2.975,3-2.975c0.005,0,31.157,0.149,31.157,0.149c1.642,0.008,2.972,1.333,2.986,2.975l0.149,17.583
			c0.007,0.797-0.305,1.565-0.865,2.133c-0.56,0.567-1.323,0.889-2.121,0.893C321.229,595.349,289.78,595.498,289.775,595.498z"/>
		<path d="M289.924,574.617l31.142,0.149l0.149,17.583l-31.44,0.149L289.924,574.617 M289.924,568.617c-3.292,0-5.972,2.654-6,5.95
			l-0.149,17.881c-0.013,1.605,0.617,3.148,1.75,4.285c1.126,1.13,2.656,1.765,4.25,1.765c0.009,0,0.019,0,0.028,0l31.44-0.149
			c1.595-0.008,3.122-0.65,4.242-1.786c1.121-1.135,1.743-2.67,1.729-4.265l-0.149-17.583c-0.028-3.283-2.688-5.934-5.971-5.949
			l-31.142-0.149C289.943,568.617,289.934,568.617,289.924,568.617L289.924,568.617z"/>
	</g>
</g>
</svg>
